<?xml version="1.0" encoding="UTF-8" standalone="no"?>
<!-- Created with Inkscape (http://www.inkscape.org/) -->

<svg
   xmlns:dc="http://purl.org/dc/elements/1.1/"
   xmlns:cc="http://creativecommons.org/ns#"
   xmlns:rdf="http://www.w3.org/1999/02/22-rdf-syntax-ns#"
   xmlns:svg="http://www.w3.org/2000/svg"
   xmlns="http://www.w3.org/2000/svg"
   xmlns:sodipodi="http://sodipodi.sourceforge.net/DTD/sodipodi-0.dtd"
   xmlns:inkscape="http://www.inkscape.org/namespaces/inkscape"
   width="244.89415mm"
   height="193.66344mm"
   viewBox="0 0 867.73518 686.20903"
   id="svg4500"
   version="1.1"
   inkscape:version="0.91 r13725"
   sodipodi:docname="chennai central.svg">
  <defs
     id="defs4502" />
  <sodipodi:namedview
     id="base"
     pagecolor="#ffffff"
     bordercolor="#666666"
     borderopacity="1.0"
     inkscape:pageopacity="0.0"
     inkscape:pageshadow="2"
     inkscape:zoom="0.35"
     inkscape:cx="624.58187"
     inkscape:cy="16.030644"
     inkscape:document-units="px"
     inkscape:current-layer="layer1"
     showgrid="false"
     fit-margin-top="0"
     fit-margin-left="0"
     fit-margin-right="0"
     fit-margin-bottom="0"
     inkscape:window-width="1920"
     inkscape:window-height="1027"
     inkscape:window-x="-8"
     inkscape:window-y="-8"
     inkscape:window-maximized="1" />
  <metadata
     id="metadata4505">
    <rdf:RDF>
      <cc:Work
         rdf:about="">
        <dc:format>image/svg+xml</dc:format>
        <dc:type
           rdf:resource="http://purl.org/dc/dcmitype/StillImage" />
        <dc:title></dc:title>
      </cc:Work>
    </rdf:RDF>
  </metadata>
  <g
     inkscape:label="Layer 1"
     inkscape:groupmode="layer"
     id="layer1"
     transform="translate(676.72473,137.81617)">
    <path
       style="fill:#000000"
       d="m -536.3757,546.88309 c -14.17341,-3.81881 -20.78718,-21.11568 -12.97353,-33.92974 4.5791,-7.50954 16.01028,-11.74836 24.98722,-9.26536 9.99341,2.76357 12.00019,4.40656 9.32332,7.63196 -1.9532,2.3536 -2.60542,2.36797 -5.80077,0.13071 -9.96901,-6.98279 -24.96805,1.21514 -24.96805,13.6471 0,12.43152 14.99904,20.62945 24.96805,13.64666 3.09819,-2.16974 3.87894,-2.18542 5.59861,-0.11328 1.59157,1.9179 1.19597,2.92478 -1.94492,4.94856 -4.54467,2.9287 -14.33113,4.61395 -19.18993,3.3047 z m 31.41494,-21.7862 c 0,-21.84198 0.16992,-22.97651 3.40404,-22.97651 3.02586,0 3.40404,1.13453 3.40404,10.21168 l 0,10.21169 11.91349,0 11.91392,0 0,-10.21169 c 0,-9.07715 0.37905,-10.21168 3.40404,-10.21168 3.23543,0 3.40361,1.13453 3.40361,22.97651 0,21.84154 -0.16992,22.97651 -3.40361,22.97651 -2.99144,0 -3.40404,-1.13497 -3.40404,-9.36079 l 0,-9.36078 -11.91392,0 -11.91349,0 0,9.36078 c 0,8.22582 -0.4139,9.36079 -3.40404,9.36079 -3.23587,0 -3.40404,-1.13497 -3.40404,-22.97651 z m 51.05887,0 0,-22.97651 15.31753,0 c 14.18299,0 15.31796,0.2527 15.31796,3.40404 0,3.07945 -1.13497,3.4036 -11.91392,3.4036 l -11.91349,0 0,6.80808 0,6.80765 11.06259,0 c 9.92805,0 11.06258,0.34855 11.06258,3.40404 0,3.05461 -1.13453,3.40404 -11.06258,3.40404 l -11.06259,0 0,5.95674 0,5.95675 12.76439,0 c 11.63029,0 12.76482,0.30498 12.76482,3.40404 0,3.16484 -1.13453,3.40404 -16.16843,3.40404 l -16.16886,0 0,-22.97651 z m 42.54898,0 c 0,-29.33453 1.33016,-29.82512 18.0236,-6.64732 l 11.76056,16.32964 0.4871,-16.32964 c 0.44571,-14.92889 0.77378,-16.32919 3.82971,-16.32919 3.15657,0 3.34217,1.27569 3.34217,22.97651 0,21.52958 -0.20477,22.97651 -3.27072,22.97651 -2.19631,0 -7.08823,-5.38904 -14.8923,-16.40501 l -11.62114,-16.40501 -0.4871,16.40501 c -0.44571,15.00383 -0.77248,16.40501 -3.82971,16.40501 -3.15657,0 -3.34217,-1.27614 -3.34217,-22.97651 z m 51.05887,0 c 0,-29.33453 1.32972,-29.82512 18.02316,-6.64732 l 11.761,16.32964 0.4871,-16.32964 c 0.44527,-14.92889 0.77378,-16.32919 3.8297,-16.32919 3.15657,0 3.34218,1.27569 3.34218,22.97651 0,21.52958 -0.20478,22.97651 -3.27072,22.97651 -2.19631,0 -7.08823,-5.38904 -14.8923,-16.40501 l -11.62158,-16.40501 -0.4871,16.40501 c -0.44527,15.00383 -0.77247,16.40501 -3.82927,16.40501 -3.15657,0 -3.34217,-1.27614 -3.34217,-22.97651 z m 45.95302,21.5139 c 0,-0.80428 4.15691,-10.95236 9.23792,-22.55085 12.48817,-28.50715 13.5604,-28.50322 25.88387,0.0959 5.02088,11.65164 9.129,21.79971 9.129,22.55084 0,0.75156 -1.45695,1.36632 -3.23761,1.36632 -2.06691,0 -3.88068,-1.84601 -5.0174,-5.10584 -1.75321,-5.03047 -1.95973,-5.10584 -13.92986,-5.10584 -11.93701,0 -12.18361,0.0871 -14.07712,5.10584 -1.74363,4.61918 -7.9888,7.46728 -7.9888,3.64323 z m 30.35143,-16.88122 c -0.3137,-0.72804 -2.05907,-5.32369 -3.88199,-10.21169 -1.82293,-4.88843 -3.73778,-8.88501 -4.25495,-8.88152 -0.51716,0.003 -2.25382,3.25852 -3.85933,7.23331 -5.74936,14.2331 -6.0465,13.18396 3.72993,13.18396 4.85837,0 8.57829,-0.59602 8.26634,-1.32406 z m 22.40924,-4.63268 c 0,-21.84198 0.16992,-22.97651 3.40361,-22.97651 3.23586,0 3.40404,1.13453 3.40404,22.97651 0,21.84154 -0.16992,22.97651 -3.40404,22.97651 -3.23543,0 -3.40361,-1.13497 -3.40361,-22.97651 z m 50.27855,21.7862 c -14.17341,-3.81881 -20.78717,-21.11568 -12.97352,-33.92974 4.57953,-7.50954 16.01027,-11.74836 24.98765,-9.26536 9.99297,2.76357 12.00019,4.40656 9.32288,7.63196 -1.95276,2.3536 -2.60498,2.36797 -5.80033,0.13071 -9.96944,-6.98279 -24.96848,1.21514 -24.96848,13.6471 0,12.43152 14.99904,20.62945 24.96848,13.64666 3.09775,-2.16974 3.87894,-2.18542 5.59817,-0.11328 1.59201,1.9179 1.19641,2.92478 -1.94491,4.94856 -4.54468,2.9287 -14.33113,4.61395 -19.18994,3.3047 z m 31.41538,-21.7862 0,-22.97651 15.31753,0 c 14.18299,0 15.31753,0.2527 15.31753,3.40404 0,3.07945 -1.13454,3.4036 -11.91349,3.4036 l -11.91393,0 0,6.80808 0,6.80765 11.06303,0 c 9.92805,0 11.06258,0.34855 11.06258,3.40404 0,3.05461 -1.13453,3.40404 -11.06258,3.40404 l -11.06303,0 0,5.95674 0,5.95675 12.76483,0 c 11.63029,0 12.76483,0.30498 12.76483,3.40404 0,3.16484 -1.13454,3.40404 -16.16887,3.40404 l -16.16843,0 0,-22.97651 z m 42.54898,0 c 0,-29.33453 1.33016,-29.82512 18.02316,-6.64732 l 11.761,16.32964 0.4871,-16.32964 c 0.44527,-14.92889 0.77378,-16.32919 3.82971,-16.32919 3.15657,0 3.342172,1.27569 3.342172,22.97651 0,21.52958 -0.204772,22.97651 -3.270722,22.97651 -2.19631,0 -7.08823,-5.38904 -14.89229,-16.40501 l -11.62115,-16.40501 -0.48753,16.40501 c -0.44528,15.00383 -0.77248,16.40501 -3.82928,16.40501 -3.15656,0 -3.34217,-1.27614 -3.34217,-22.97651 z m 59.568317,3.40404 0,-19.57291 -6.807645,0 c -5.673111,0 -6.807646,-0.56727 -6.807646,-3.4036 0,-3.17705 1.134535,-3.40404 17.019332,-3.40404 15.885233,0 17.019768,0.22655 17.019768,3.40404 0,2.83633 -1.134535,3.4036 -6.808082,3.4036 l -6.807645,0 0,19.57291 c 0,18.4375 -0.196061,19.57247 -3.404041,19.57247 -3.206674,0 -3.404041,-1.13497 -3.404041,-19.57247 z m 28.933692,-3.40404 0,-22.97651 9.786018,0.0958 c 20.105755,0.19606 28.395181,7.17275 24.394681,20.52663 -1.080074,3.60402 -3.481593,7.36576 -5.337194,8.3587 -3.269848,1.74972 -3.213209,2.03902 1.843837,9.38866 5.180346,7.52959 5.189496,7.58274 1.305761,7.56967 -2.772291,0 -5.040925,-1.99153 -7.790996,-6.80764 -3.502071,-6.13233 -4.539012,-6.79458 -10.637355,-6.79458 -6.748828,0 -6.757106,0 -6.757106,6.80765 0,5.67311 -0.567267,6.80808 -3.404041,6.80808 -3.235864,0 -3.403605,-1.13497 -3.403605,-22.97651 z m 25.820692,-0.26578 c 7.652883,-6.92571 1.574582,-15.90483 -10.76719,-15.90483 l -8.245856,0 0,9.36078 0,9.36079 7.950459,0 c 5.00912,0 9.10155,-1.04174 11.062587,-2.81674 z m 16.728292,21.77794 c 0,-0.80429 4.1569118,-10.95236 9.2379207,-22.55085 12.4881633,-28.50715 13.5603943,-28.50323 25.8838673,0.0958 5.020883,11.65164 9.128998,21.79972 9.128998,22.55085 0,0.75156 -1.456945,1.36632 -3.237607,1.36632 -2.06691,0 -3.880685,-1.84602 -5.017399,-5.10584 -1.753213,-5.03047 -1.95973,-5.10585 -13.929859,-5.10585 -11.9370156,0 -12.1836158,0.0871 -14.0771216,5.10585 -1.74362865,4.61917 -7.9887994,7.46728 -7.9887994,3.64323 z m 30.351425,-16.88122 c -0.313696,-0.72804 -2.059067,-5.32369 -3.881992,-10.21169 -1.822924,-4.88843 -3.737778,-8.88501 -4.254941,-8.88153 -0.517164,0.003 -2.253821,3.25852 -3.859337,7.23332 -5.7493558,14.2331 -6.0464959,13.18396 3.729937,13.18396 4.858371,0 8.578287,-0.59603 8.266333,-1.32406 z m 22.409245,-4.63269 c 0,-21.84197 0.169919,-22.97651 3.403605,-22.97651 3.206673,0 3.404041,1.13454 3.404041,19.57247 l 0,19.57247 9.360785,0 c 8.22625,0 9.360785,0.41391 9.360785,3.40404 0,3.10124 -1.134535,3.40404 -12.764826,3.40404 l -12.76439,0 0,-22.97651 z M -676.06641,375.78136 c -0.45486,-1.18725 -0.6274,-40.45288 -0.38341,-87.25681 l 0.44266,-85.09796 13.8889,-0.4919 c 12.60798,-0.44658 14.14204,-0.87835 16.63331,-4.68017 3.84932,-5.8744 13.39745,-5.87309 17.2472,10e-4 2.51829,3.84365 3.96782,4.23141 17.48421,4.68061 l 14.7385,0.49015 0,86.79977 0,86.8002 -39.612,0.4566 c -30.76576,0.35291 -39.7963,-0.0436 -40.43894,-1.7018 z m 19.63128,-18.49022 c 0,-11.2752 0.75636,-16.76097 2.78362,-20.19289 5.66658,-9.59257 17.78136,-12.93431 27.90765,-7.69776 7.82193,4.04494 10.15592,10.47266 10.15592,27.96864 l 0,15.40249 7.65898,0 7.65855,0 0,-82.54526 0,-82.54483 -12.67116,0 -12.67159,0 -0.5189,8.08421 c -0.5176,8.06853 -0.53154,8.08553 -7.16404,8.6284 -12.27555,1.0047 -14.62914,-0.45748 -14.62914,-9.08631 l 0,-7.6263 -11.91349,0 -11.91392,0 0,82.54483 0,82.54526 7.65898,0 7.65854,0 0,-15.48048 z m 0,-74.72333 c 0,-4.91675 0.70931,-6.80808 2.55314,-6.80808 2.0643,0 2.55271,-2.70433 2.55271,-14.12636 0,-14.88794 1.39769,-18.21094 7.65898,-18.21094 1.96583,0 4.49326,0.91931 5.61647,2.04251 1.58852,1.58853 2.49607,1.58853 4.08459,0 1.12364,-1.1232 3.65064,-2.04251 5.61647,-2.04251 6.18505,0 7.65898,3.35176 7.65898,17.41363 0,10.27748 0.58426,13.55299 2.55271,14.30847 1.66433,0.63829 2.55314,3.28554 2.55314,7.6054 l 0,6.62553 -20.42338,0 -20.42381,0 0,-6.80765 z m 37.44315,0 c 0,-3.17705 -1.13454,-3.40404 -17.01934,-3.40404 -15.88523,0 -17.01976,0.22656 -17.01976,3.40404 0,3.17705 1.13453,3.4036 17.01976,3.4036 15.8848,0 17.01934,-0.22655 17.01934,-3.4036 z m -20.78021,-20.84904 c -0.44832,-12.74174 -0.80907,-14.0414 -3.89811,-14.0414 -3.08904,0 -3.44979,1.29966 -3.89811,14.0414 l -0.49451,14.04096 4.39262,0 4.39262,0 -0.49451,-14.04096 z m 15.31797,0 c -0.44876,-12.74174 -0.80951,-14.0414 -3.89855,-14.0414 -3.0886,0 -3.44935,1.29966 -3.89811,14.0414 l -0.49451,14.04096 4.39262,0 4.39262,0 -0.49407,-14.04096 z m 3.44586,95.76887 c -0.62913,-13.15869 -1.29094,-15.88001 -4.75947,-19.57247 -2.87947,-3.06508 -5.80251,-4.28893 -10.24349,-4.28893 -4.44141,0 -7.36402,1.22385 -10.24349,4.28893 -3.46896,3.69246 -4.13077,6.41378 -4.7599,19.57247 l -0.73066,15.28398 15.73405,0 15.73405,0 -0.73109,-15.28398 z m -10.2339,-148.52954 c -0.49974,-8.67937 -0.66051,-8.93555 -5.61996,-8.93555 -4.95989,0 -5.12065,0.25705 -5.62039,8.93555 l -0.51455,8.93512 6.13494,0 6.13451,0 -0.51455,-8.93512 z m 43.66522,166.79363 c -0.45312,-1.18028 -0.62217,-29.71357 -0.37469,-63.40804 l 0.44745,-61.26228 140.41177,0 140.41135,0 0,62.97236 0,62.97279 -140.03578,0.43569 c -111.4075,0.3442 -140.20395,-0.003 -140.85879,-1.71008 z m 34.96145,-18.46059 c 0,-17.14219 2.12791,-22.87369 10.27966,-27.68893 9.44356,-5.57856 22.07332,-2.17104 27.7839,7.49604 2.02727,3.43192 2.78362,8.91769 2.78362,20.19289 l 0,15.48048 22.12561,0 22.12518,0 0,-15.48048 c 0,-11.2752 0.75636,-16.76097 2.78362,-20.19289 5.66657,-9.59257 17.78135,-12.93431 27.90764,-7.69776 7.82193,4.04494 10.15592,10.47266 10.15592,27.96864 l 0,15.40249 22.12561,0 22.12518,0 0,-15.40249 c 0,-17.49598 2.33398,-23.9237 10.15635,-27.96864 10.19862,-5.27402 23.2889,-1.74711 28.10893,7.57402 1.74973,3.38357 2.5819,9.95638 2.5819,20.39462 l 0,15.40249 15.31753,0 15.31753,0 0,-58.71785 0,-58.71741 -136.1564,0 -136.15684,0 0,58.71741 0,58.71785 15.31753,0 15.31753,0 0,-15.48048 z m -20.42337,-56.8531 0,-11.06258 5.95674,0 5.95675,0 0,-8.16918 c 0,-4.49326 0.9193,-9.08848 2.04251,-10.21212 2.54617,-2.54617 8.58177,-2.65117 11.0408,-0.1917 1.33234,1.33277 2.17061,1.33277 2.99406,0 1.52971,-2.47516 8.2659,-2.35534 10.81381,0.1917 1.12321,1.12364 2.04251,5.71886 2.04251,10.21212 l 0,8.16918 11.06259,0 11.06259,0 0,-8.16918 c 0,-4.49326 0.9193,-9.08848 2.04251,-10.21212 2.54617,-2.54617 8.58177,-2.65117 11.0408,-0.1917 1.33234,1.33277 2.17017,1.33277 2.99362,0 1.53014,-2.47516 8.26634,-2.35534 10.81425,0.1917 1.1232,1.12364 2.04207,5.71886 2.04207,10.21212 l 0,8.16918 10.21212,0 10.21169,0 0,-8.16918 c 0,-4.49326 0.91887,-9.08848 2.04208,-10.21212 2.54616,-2.54617 8.58177,-2.65117 11.0408,-0.1917 1.33234,1.33277 2.1706,1.33277 2.99406,0 1.5297,-2.47516 8.26633,-2.35534 10.81381,0.1917 1.1232,1.12364 2.04251,5.71886 2.04251,10.21212 l 0,8.16918 10.21168,0 10.21169,0 0,-8.16918 c 0,-4.49326 0.9193,-9.08848 2.04251,-10.21212 2.54617,-2.54617 8.58177,-2.65117 11.0408,-0.1917 1.33234,1.33277 2.17017,1.33277 2.99363,0 1.5297,-2.47516 8.26633,-2.35534 10.81424,0.1917 1.12321,1.12364 2.04208,5.71886 2.04208,10.21212 l 0,8.16918 10.21168,0 10.21212,0 0,-8.16918 c 0,-4.49326 0.91887,-9.08848 2.04208,-10.21212 2.54617,-2.54617 8.58177,-2.65117 11.0408,-0.1917 1.33234,1.33277 2.17061,1.33277 2.99406,0 1.52971,-2.47516 8.26633,-2.35534 10.81381,0.1917 1.12321,1.12364 2.04251,5.71886 2.04251,10.21212 l 0,8.16918 5.95675,0 5.95674,0 0,11.06258 0,11.06303 -125.94471,0 -125.94515,0 0,-11.06303 z m 246.78402,0 0,-5.95674 -120.83887,0 -120.83931,0 0,5.95674 0,5.95718 120.83931,0 120.83887,0 0,-5.95718 z m -229.76425,0 c 0,-2.34008 0.7655,-4.2545 1.7018,-4.2545 0.93586,0 1.7018,1.91442 1.7018,4.2545 0,2.34053 -0.76594,4.25494 -1.7018,4.25494 -0.9363,0 -1.7018,-1.91441 -1.7018,-4.25494 z m 10.21168,0 c 0,-2.34008 0.76595,-4.2545 1.70181,-4.2545 0.93629,0 1.7018,1.91442 1.7018,4.2545 0,2.34053 -0.76551,4.25494 -1.7018,4.25494 -0.93586,0 -1.70181,-1.91441 -1.70181,-4.25494 z m 10.21169,0 c 0,-2.34008 0.76594,-4.2545 1.7018,-4.2545 0.9363,0 1.70224,1.91442 1.70224,4.2545 0,2.34053 -0.76594,4.25494 -1.70224,4.25494 -0.93586,0 -1.7018,-1.91441 -1.7018,-4.25494 z m 10.21169,0 c 0,-2.34008 0.76594,-4.2545 1.7018,-4.2545 0.9363,0 1.70224,1.91442 1.70224,4.2545 0,2.34053 -0.76594,4.25494 -1.70224,4.25494 -0.93586,0 -1.7018,-1.91441 -1.7018,-4.25494 z m 10.21168,0 c 0,-2.34008 0.76594,-4.2545 1.70224,-4.2545 0.93586,0 1.7018,1.91442 1.7018,4.2545 0,2.34053 -0.76594,4.25494 -1.7018,4.25494 -0.9363,0 -1.70224,-1.91441 -1.70224,-4.25494 z m 10.21169,0 c 0,-2.34008 0.76594,-4.2545 1.70224,-4.2545 0.93586,0 1.7018,1.91442 1.7018,4.2545 0,2.34053 -0.76594,4.25494 -1.7018,4.25494 -0.9363,0 -1.70224,-1.91441 -1.70224,-4.25494 z m 10.21169,0 c 0,-2.34008 0.76594,-4.2545 1.70223,-4.2545 0.93586,0 1.70181,1.91442 1.70181,4.2545 0,2.34053 -0.76595,4.25494 -1.70181,4.25494 -0.93629,0 -1.70223,-1.91441 -1.70223,-4.25494 z m 10.21212,0 c 0,-2.34008 0.76594,-4.2545 1.7018,-4.2545 0.9363,0 1.7018,1.91442 1.7018,4.2545 0,2.34053 -0.7655,4.25494 -1.7018,4.25494 -0.93586,0 -1.7018,-1.91441 -1.7018,-4.25494 z m 10.21168,0 c 0,-2.34008 0.76595,-4.2545 1.70181,-4.2545 0.93629,0 1.70223,1.91442 1.70223,4.2545 0,2.34053 -0.76594,4.25494 -1.70223,4.25494 -0.93586,0 -1.70181,-1.91441 -1.70181,-4.25494 z m 10.21169,0 c 0,-2.34008 0.76594,-4.2545 1.7018,-4.2545 0.9363,0 1.70224,1.91442 1.70224,4.2545 0,2.34053 -0.76594,4.25494 -1.70224,4.25494 -0.93586,0 -1.7018,-1.91441 -1.7018,-4.25494 z m 10.21169,0 c 0,-2.34008 0.76594,-4.2545 1.7018,-4.2545 0.9363,0 1.70224,1.91442 1.70224,4.2545 0,2.34053 -0.76594,4.25494 -1.70224,4.25494 -0.93586,0 -1.7018,-1.91441 -1.7018,-4.25494 z m 10.21168,0 c 0,-2.34008 0.76594,-4.2545 1.70224,-4.2545 0.93586,0 1.7018,1.91442 1.7018,4.2545 0,2.34053 -0.76594,4.25494 -1.7018,4.25494 -0.9363,0 -1.70224,-1.91441 -1.70224,-4.25494 z m 10.21169,0 c 0,-2.34008 0.76594,-4.2545 1.70224,-4.2545 0.93586,0 1.7018,1.91442 1.7018,4.2545 0,2.34053 -0.76594,4.25494 -1.7018,4.25494 -0.9363,0 -1.70224,-1.91441 -1.70224,-4.25494 z m 10.21212,0 c 0,-2.34008 0.76551,-4.2545 1.7018,-4.2545 0.93586,0 1.70181,1.91442 1.70181,4.2545 0,2.34053 -0.76595,4.25494 -1.70181,4.25494 -0.93629,0 -1.7018,-1.91441 -1.7018,-4.25494 z m 10.21169,0 c 0,-2.34008 0.76594,-4.2545 1.7018,-4.2545 0.9363,0 1.7018,1.91442 1.7018,4.2545 0,2.34053 -0.7655,4.25494 -1.7018,4.25494 -0.93586,0 -1.7018,-1.91441 -1.7018,-4.25494 z m 10.21168,0 c 0,-2.34008 0.76595,-4.2545 1.70181,-4.2545 0.93629,0 1.70223,1.91442 1.70223,4.2545 0,2.34053 -0.76594,4.25494 -1.70223,4.25494 -0.93586,0 -1.70181,-1.91441 -1.70181,-4.25494 z m 10.21169,0 c 0,-2.34008 0.76594,-4.2545 1.7018,-4.2545 0.9363,0 1.70224,1.91442 1.70224,4.2545 0,2.34053 -0.76594,4.25494 -1.70224,4.25494 -0.93586,0 -1.7018,-1.91441 -1.7018,-4.25494 z m 10.21169,0 c 0,-2.34008 0.76594,-4.2545 1.70223,-4.2545 0.93587,0 1.70181,1.91442 1.70181,4.2545 0,2.34053 -0.76594,4.25494 -1.70181,4.25494 -0.93629,0 -1.70223,-1.91441 -1.70223,-4.25494 z m 10.21168,0 c 0,-2.34008 0.76594,-4.2545 1.70224,-4.2545 0.93586,0 1.7018,1.91442 1.7018,4.2545 0,2.34053 -0.76594,4.25494 -1.7018,4.25494 -0.9363,0 -1.70224,-1.91441 -1.70224,-4.25494 z m 10.21212,0 c 0,-2.34008 0.76551,-4.2545 1.70181,-4.2545 0.93586,0 1.7018,1.91442 1.7018,4.2545 0,2.34053 -0.76594,4.25494 -1.7018,4.25494 -0.9363,0 -1.70181,-1.91441 -1.70181,-4.25494 z m 10.21169,0 c 0,-2.34008 0.76594,-4.2545 1.7018,-4.2545 0.9363,0 1.70181,1.91442 1.70181,4.2545 0,2.34053 -0.76551,4.25494 -1.70181,4.25494 -0.93586,0 -1.7018,-1.91441 -1.7018,-4.25494 z m 10.21169,0 c 0,-2.34008 0.76594,-4.2545 1.7018,-4.2545 0.9363,0 1.70224,1.91442 1.70224,4.2545 0,2.34053 -0.76594,4.25494 -1.70224,4.25494 -0.93586,0 -1.7018,-1.91441 -1.7018,-4.25494 z m -207.97151,-19.1468 c -0.43569,-6.77671 -1.06918,-8.08422 -3.92251,-8.08422 -2.85333,0 -3.48769,1.30751 -3.92251,8.08422 -0.49494,7.7117 -0.3137,8.08422 3.92251,8.08422 4.23664,0 4.41745,-0.3747 3.92251,-8.08422 z m 13.61573,0 c -0.43569,-6.77671 -1.06918,-8.08422 -3.92251,-8.08422 -2.85333,0 -3.4877,1.30751 -3.92251,8.08422 -0.49495,7.7117 -0.3137,8.08422 3.92251,8.08422 4.23664,0 4.41745,-0.3747 3.92251,-8.08422 z m 37.44314,0 c -0.43569,-6.77671 -1.06918,-8.08422 -3.92251,-8.08422 -2.85333,0 -3.48769,1.30751 -3.92251,8.08422 -0.49495,7.7117 -0.3137,8.08422 3.92251,8.08422 4.23664,0 4.41745,-0.3747 3.92251,-8.08422 z m 13.61573,0 c -0.43569,-6.77671 -1.06919,-8.08422 -3.92251,-8.08422 -2.85333,0 -3.48813,1.30751 -3.92295,8.08422 -0.49451,7.7117 -0.3137,8.08422 3.92295,8.08422 4.23664,0 4.41745,-0.3747 3.92251,-8.08422 z m 35.74133,0 c -0.43569,-6.77671 -1.06961,-8.08422 -3.92294,-8.08422 -2.85333,0 -3.4877,1.30751 -3.92251,8.08422 -0.49495,7.7117 -0.3137,8.08422 3.92251,8.08422 4.23664,0 4.41745,-0.3747 3.92294,-8.08422 z m 13.61573,0 c -0.43569,-6.77671 -1.06962,-8.08422 -3.92295,-8.08422 -2.85332,0 -3.48769,1.30751 -3.92251,8.08422 -0.49494,7.7117 -0.31369,8.08422 3.92251,8.08422 4.23665,0 4.41746,-0.3747 3.92295,-8.08422 z m 35.7409,0 c -0.43569,-6.77671 -1.06918,-8.08422 -3.92251,-8.08422 -2.85333,0 -3.48813,1.30751 -3.92294,8.08422 -0.49451,7.7117 -0.3137,8.08422 3.92294,8.08422 4.23665,0 4.41746,-0.3747 3.92251,-8.08422 z m 13.61573,0 c -0.43569,-6.77671 -1.06918,-8.08422 -3.92251,-8.08422 -2.85377,0 -3.48813,1.30751 -3.92295,8.08422 -0.4945,7.7117 -0.31369,8.08422 3.92295,8.08422 4.23664,0 4.41745,-0.3747 3.92251,-8.08422 z m 35.7409,0 c -0.43569,-6.77671 -1.06918,-8.08422 -3.92251,-8.08422 -2.85333,0 -3.48769,1.30751 -3.92251,8.08422 -0.49494,7.7117 -0.3137,8.08422 3.92251,8.08422 4.23664,0 4.41746,-0.3747 3.92251,-8.08422 z m 13.61573,0 c -0.43569,-6.77671 -1.06918,-8.08422 -3.92251,-8.08422 -2.85333,0 -3.48769,1.30751 -3.92251,8.08422 -0.49495,7.7117 -0.3137,8.08422 3.92251,8.08422 4.23664,0 4.41745,-0.3747 3.92251,-8.08422 z m -180.38976,76.1964 c -0.62913,-13.15869 -1.29095,-15.88001 -4.75947,-19.57247 -2.87947,-3.06508 -5.80251,-4.28893 -10.24349,-4.28893 -4.44142,0 -7.36446,1.22385 -10.24349,4.28893 -3.46896,3.69246 -4.13077,6.41378 -4.75991,19.57247 l -0.73065,15.28398 15.73405,0 15.73361,0 -0.73065,-15.28398 z m 85.09797,0 c -0.62914,-13.15869 -1.29095,-15.88001 -4.75947,-19.57247 -2.87947,-3.06508 -5.80251,-4.28893 -10.24349,-4.28893 -4.44142,0 -7.36446,1.22385 -10.24349,4.28893 -3.46896,3.69246 -4.13077,6.41378 -4.75991,19.57247 l -0.73065,15.28398 15.73405,0 15.73361,0 -0.73065,-15.28398 z m 85.09797,0 c -0.62914,-13.15869 -1.29095,-15.88001 -4.75947,-19.57247 -2.87947,-3.06508 -5.80251,-4.28893 -10.2435,-4.28893 -4.44141,0 -7.36445,1.22385 -10.24392,4.28893 -3.46853,3.69246 -4.13034,6.41378 -4.75947,19.57247 l -0.73065,15.28398 15.73404,0 15.73362,0 -0.73065,-15.28398 z m 48.76235,18.28588 c -0.45094,-1.1829 -0.6226,-74.52684 -0.37905,-162.98615 l 0.43874,-160.835147 19.22217,-0.481873 c 15.22429,-0.383406 19.42652,-1.014284 20.20422,-3.041547 1.38724,-3.614914 9.65662,-7.539168 15.88741,-7.539168 6.2308,0 14.49975,3.924254 15.88698,7.539168 0.77814,2.027263 4.98036,2.659883 20.20422,3.041547 l 19.22218,0.481873 0,162.536947 0,162.53739 -54.93258,0.44876 c -43.03173,0.35291 -55.10991,0 -55.75255,-1.7018 z m 26.4385,-38.47529 c 0,-33.74806 0.1917,-35.83414 3.91902,-42.8849 10.35939,-19.5899 39.14015,-20.02036 50.05548,-0.74808 3.6441,6.4347 3.83711,8.58003 3.86369,42.9398 l 0.0436,36.16657 11.06258,0 11.06259,0 0,-158.28245 0,-158.282005 -15.128,0 -15.12844,0 -1.08487,5.784211 c -2.42069,12.902504 -13.75253,19.9476 -25.66951,15.9593 -7.72738,-2.586252 -12.69947,-8.688081 -13.23232,-16.239448 l -0.38776,-5.497528 -15.7432,-0.0031 -15.7432,-0.0035 0,158.282 0,158.28245 11.06259,0 11.06302,0 0,-35.47339 z m -8.50989,-161.1031 c 0,-12.48075 0.0958,-12.76482 4.25494,-12.76482 l 4.25495,0 0,-25.297 c 0,-25.06346 0.0436,-25.33882 4.48672,-29.78459 5.95457,-5.95457 13.9425,-6.01687 19.8047,-0.15249 l 4.33206,4.33249 4.33249,-4.33249 c 5.84042,-5.83998 14.979,-5.90838 20.73271,-0.15249 4.06542,4.06541 4.17783,4.86621 4.17783,29.78459 l 0,25.60633 4.25494,0 c 4.1604,0 4.25494,0.2832 4.25494,12.76483 l 0,12.76483 -37.44314,0 -37.44314,0 0,-12.76483 z m 69.78,0 0,-7.65854 -32.33686,0 -32.3373,0 0,7.65854 0,7.65899 32.3373,0 32.33686,0 0,-7.65899 z m -54.46247,0 c 0,-2.34008 0.76594,-4.25494 1.7018,-4.25494 0.9363,0 1.70224,1.91486 1.70224,4.25494 0,2.34009 -0.76594,4.25494 -1.70224,4.25494 -0.93586,0 -1.7018,-1.91485 -1.7018,-4.25494 z m 10.21169,0 c 0,-2.34008 0.76594,-4.25494 1.7018,-4.25494 0.9363,0 1.70224,1.91486 1.70224,4.25494 0,2.34009 -0.76594,4.25494 -1.70224,4.25494 -0.93586,0 -1.7018,-1.91485 -1.7018,-4.25494 z m 10.21168,0 c 0,-2.34008 0.76595,-4.25494 1.70224,-4.25494 0.93586,0 1.7018,1.91486 1.7018,4.25494 0,2.34009 -0.76594,4.25494 -1.7018,4.25494 -0.93629,0 -1.70224,-1.91485 -1.70224,-4.25494 z m 10.21169,0 c 0,-2.34008 0.76594,-4.25494 1.70224,-4.25494 0.93586,0 1.7018,1.91486 1.7018,4.25494 0,2.34009 -0.76594,4.25494 -1.7018,4.25494 -0.9363,0 -1.70224,-1.91485 -1.70224,-4.25494 z m 10.21212,0 c 0,-2.34008 0.76551,-4.25494 1.7018,-4.25494 0.93587,0 1.70181,1.91486 1.70181,4.25494 0,2.34009 -0.76594,4.25494 -1.70181,4.25494 -0.93629,0 -1.7018,-1.91485 -1.7018,-4.25494 z m -23.82741,-36.88371 c 0,-20.05435 -0.4749,-24.64303 -2.81673,-27.23102 -3.50295,-3.87066 -8.70943,-3.99135 -12.79271,-0.29627 -2.73962,2.47951 -3.11213,5.74021 -3.11213,27.23145 l 0,24.41429 9.36078,0 9.36079,0 0,-24.11889 z m 28.93326,0 c 0,-20.05435 -0.47491,-24.64303 -2.81674,-27.23102 -3.50294,-3.87066 -8.70943,-3.99135 -12.79271,-0.29627 -2.73961,2.47951 -3.11213,5.74021 -3.11213,27.23145 l 0,24.41429 9.36079,0 9.36079,0 0,-24.11889 z m -0.30063,196.44229 c -0.59777,-38.47746 -1.14281,-40.7644 -11.3044,-47.43437 -5.94323,-3.90159 -18.49849,-3.90159 -24.44173,0 -10.16115,6.66997 -10.70619,8.95691 -11.3044,47.43437 l -0.54853,35.31567 24.07401,0 24.07358,0 -0.54853,-35.31567 z M -236.2045,72.455762 c 2.62983,-1.359786 5.77115,-4.860986 6.98018,-7.78054 4.71895,-11.392404 -7.43242,-23.362968 -18.89584,-18.614826 -7.47861,3.097751 -11.29046,11.564502 -8.37482,18.603063 2.09828,5.065759 8.6005,10.052224 13.2968,10.196873 1.21644,0.04357 4.36386,-1.044348 6.99368,-2.40457 z m -4.52506,-9.81608 c -2.8407,-1.370243 -3.82971,-3.317774 -3.82971,-7.543525 0,-3.133478 0.76594,-5.697074 1.70223,-5.697074 0.93587,0 1.70181,2.283448 1.70181,5.073602 0,3.992222 0.90667,5.301032 4.25494,6.141477 2.34009,0.587309 4.25494,1.7506 4.25494,2.585381 0,1.978465 -3.29425,1.750164 -8.08421,-0.559861 z m 61.62433,313.112048 c -0.45268,-1.18028 -0.62217,-29.71357 -0.37469,-63.40804 l 0.44745,-61.26228 140.411776,0 140.411344,0 0,62.97236 0,62.97279 -140.03578,0.43569 c -111.4075,0.3442 -140.20395,-0.003 -140.85879,-1.71008 z m 34.96145,-18.46059 c 0,-17.14219 2.12791,-22.87369 10.27966,-27.68893 9.444,-5.57856 22.07333,-2.17104 27.7839,7.49604 2.0277,3.43192 2.78362,8.91769 2.78362,20.19289 l 0,15.48048 22.125615,0 22.125175,0 0,-15.48048 c 0,-11.2752 0.756357,-16.76097 2.783619,-20.19289 5.666576,-9.59257 17.781789,-12.93431 27.907644,-7.69776 7.821931,4.04494 10.155918,10.47266 10.155918,27.96864 l 0,15.40249 22.1256111,0 22.1251749,0 0,-15.40249 c 0,-17.49598 2.333988,-23.9237 10.156354,-27.96864 10.198616,-5.27402 23.288901,-1.74711 28.108932,7.57402 1.749729,3.38357 2.581895,9.95638 2.581895,20.39462 l 0,15.40249 15.31753,0 15.317529,0 0,-58.71785 0,-58.71741 -136.156398,0 -136.156839,0 0,58.71741 0,58.71785 15.31753,0 15.31753,0 0,-15.48048 z m -20.42337,-56.8531 0,-11.06258 5.95674,0 5.95718,0 0,-8.16918 c 0,-4.49326 0.91887,-9.08848 2.04208,-10.21212 2.54617,-2.54617 8.58177,-2.65117 11.0408,-0.1917 1.33234,1.33277 2.17061,1.33277 2.99406,0 1.52971,-2.47516 8.26633,-2.35534 10.81381,0.1917 1.12321,1.12364 2.04251,5.71886 2.04251,10.21212 l 0,8.16918 10.21169,0 10.21168,0 0,-8.16918 c 0,-4.49326 0.91931,-9.08848 2.04252,-10.21212 2.546164,-2.54617 8.581768,-2.65117 11.040799,-0.1917 1.332338,1.33277 2.170168,1.33277 2.993621,0 1.529705,-2.47516 8.266334,-2.35534 10.814245,0.1917 1.123207,1.12364 2.042076,5.71886 2.042076,10.21212 l 0,8.16918 10.211686,0 10.212122,0 0,-8.16918 c 0,-4.49326 0.918869,-9.08848 2.042076,-10.21212 2.546168,-2.54617 8.581772,-2.65117 11.040803,-0.1917 1.332338,1.33277 2.170604,1.33277 2.994057,0 1.529705,-2.47516 8.266334,-2.35534 10.813809,0.1917 1.123207,1.12364 2.042512,5.71886 2.042512,10.21212 l 0,8.16918 10.211686,0 10.2116863,0 0,-8.16918 c 0,-4.49326 0.9188687,-9.08848 2.0425115,-10.21212 2.54573271,-2.54617 8.5817726,-2.65117 11.0408031,-0.1917 1.332338,1.33277 2.1701681,1.33277 2.9936211,0 1.529705,-2.47516 8.266334,-2.35534 10.813809,0.1917 1.123643,1.12364 2.042512,5.71886 2.042512,10.21212 l 0,8.16918 11.062587,0 11.063024,0 0,-8.16918 c 0,-4.49326 0.918868,-9.08848 2.042076,-10.21212 2.546168,-2.54617 8.581772,-2.65117 11.040803,-0.1917 1.332338,1.33277 2.170604,1.33277 2.994057,0 1.529705,-2.47516 8.266333,-2.35534 10.813809,0.1917 1.123207,1.12364 2.042511,5.71886 2.042511,10.21212 l 0,8.16918 5.956745,0 5.956744,0 0,11.06258 0,11.06303 -125.944712,0 -125.945149,0 0,-11.06303 z m 246.784018,0 0,-5.95674 -120.838869,0 -120.839309,0 0,5.95674 0,5.95718 120.839309,0 120.838869,0 0,-5.95718 z m -229.764248,0 c 0,-2.34008 0.76594,-4.2545 1.7018,-4.2545 0.9363,0 1.7018,1.91442 1.7018,4.2545 0,2.34053 -0.7655,4.25494 -1.7018,4.25494 -0.93586,0 -1.7018,-1.91441 -1.7018,-4.25494 z m 10.21168,0 c 0,-2.34008 0.76595,-4.2545 1.70181,-4.2545 0.93629,0 1.70224,1.91442 1.70224,4.2545 0,2.34053 -0.76595,4.25494 -1.70224,4.25494 -0.93586,0 -1.70181,-1.91441 -1.70181,-4.25494 z m 10.21169,0 c 0,-2.34008 0.76594,-4.2545 1.7018,-4.2545 0.9363,0 1.70224,1.91442 1.70224,4.2545 0,2.34053 -0.76594,4.25494 -1.70224,4.25494 -0.93586,0 -1.7018,-1.91441 -1.7018,-4.25494 z m 10.21169,0 c 0,-2.34008 0.76594,-4.2545 1.70224,-4.2545 0.93586,0 1.7018,1.91442 1.7018,4.2545 0,2.34053 -0.76594,4.25494 -1.7018,4.25494 -0.9363,0 -1.70224,-1.91441 -1.70224,-4.25494 z m 10.21168,0 c 0,-2.34008 0.76595,-4.2545 1.70224,-4.2545 0.93586,0 1.7018,1.91442 1.7018,4.2545 0,2.34053 -0.76594,4.25494 -1.7018,4.25494 -0.93629,0 -1.70224,-1.91441 -1.70224,-4.25494 z m 10.212125,0 c 0,-2.34008 0.765507,-4.2545 1.701803,-4.2545 0.935861,0 1.701802,1.91442 1.701802,4.2545 0,2.34053 -0.765941,4.25494 -1.701802,4.25494 -0.936296,0 -1.701803,-1.91441 -1.701803,-4.25494 z m 10.211687,0 c 0,-2.34008 0.765942,-4.2545 1.701802,-4.2545 0.936297,0 1.701803,1.91442 1.701803,4.2545 0,2.34053 -0.765506,4.25494 -1.701803,4.25494 -0.93586,0 -1.701802,-1.91441 -1.701802,-4.25494 z m 10.211686,0 c 0,-2.34008 0.765942,-4.2545 1.701803,-4.2545 0.936296,0 1.702238,1.91442 1.702238,4.2545 0,2.34053 -0.765942,4.25494 -1.702238,4.25494 -0.935861,0 -1.701803,-1.91441 -1.701803,-4.25494 z m 10.211686,0 c 0,-2.34008 0.765942,-4.2545 1.701803,-4.2545 0.936296,0 1.702238,1.91442 1.702238,4.2545 0,2.34053 -0.765942,4.25494 -1.702238,4.25494 -0.935861,0 -1.701803,-1.91441 -1.701803,-4.25494 z m 10.211687,0 c 0,-2.34008 0.765942,-4.2545 1.702238,-4.2545 0.935861,0 1.701802,1.91442 1.701802,4.2545 0,2.34053 -0.765941,4.25494 -1.701802,4.25494 -0.936296,0 -1.702238,-1.91441 -1.702238,-4.25494 z m 10.211686,0 c 0,-2.34008 0.765942,-4.2545 1.702238,-4.2545 0.935861,0 1.701803,1.91442 1.701803,4.2545 0,2.34053 -0.765942,4.25494 -1.701803,4.25494 -0.936296,0 -1.702238,-1.91441 -1.702238,-4.25494 z m 10.211687,0 c 0,-2.34008 0.765941,-4.2545 1.702238,-4.2545 0.93586,0 1.701802,1.91442 1.701802,4.2545 0,2.34053 -0.765942,4.25494 -1.701802,4.25494 -0.936297,0 -1.702238,-1.91441 -1.702238,-4.25494 z m 10.212122,0 c 0,-2.34008 0.765506,-4.2545 1.701802,-4.2545 0.935861,0 1.701803,1.91442 1.701803,4.2545 0,2.34053 -0.765942,4.25494 -1.701803,4.25494 -0.936296,0 -1.701802,-1.91441 -1.701802,-4.25494 z m 10.211686,0 c 0,-2.34008 0.765942,-4.2545 1.701802,-4.2545 0.936297,0 1.701803,1.91442 1.701803,4.2545 0,2.34053 -0.765506,4.25494 -1.701803,4.25494 -0.93586,0 -1.701802,-1.91441 -1.701802,-4.25494 z m 10.2116863,0 c 0,-2.34008 0.7659418,-4.2545 1.7018024,-4.2545 0.9362964,0 1.7022382,1.91442 1.7022382,4.2545 0,2.34053 -0.7659418,4.25494 -1.7022382,4.25494 -0.9358606,0 -1.7018024,-1.91441 -1.7018024,-4.25494 z m 10.2116863,0 c 0,-2.34008 0.7659418,-4.2545 1.7018025,-4.2545 0.9362963,0 1.7022382,1.91442 1.7022382,4.2545 0,2.34053 -0.7659419,4.25494 -1.7022382,4.25494 -0.9358607,0 -1.7018025,-1.91441 -1.7018025,-4.25494 z m 10.2116864,0 c 0,-2.34008 0.765942,-4.2545 1.702238,-4.2545 0.935861,0 1.701803,1.91442 1.701803,4.2545 0,2.34053 -0.765942,4.25494 -1.701803,4.25494 -0.936296,0 -1.702238,-1.91441 -1.702238,-4.25494 z m 10.211686,0 c 0,-2.34008 0.765942,-4.2545 1.702238,-4.2545 0.935861,0 1.701803,1.91442 1.701803,4.2545 0,2.34053 -0.765942,4.25494 -1.701803,4.25494 -0.936296,0 -1.702238,-1.91441 -1.702238,-4.25494 z m 10.212122,0 c 0,-2.34008 0.765506,-4.2545 1.701803,-4.2545 0.93586,0 1.701802,1.91442 1.701802,4.2545 0,2.34053 -0.765942,4.25494 -1.701802,4.25494 -0.936297,0 -1.701803,-1.91441 -1.701803,-4.25494 z m 10.211687,0 c 0,-2.34008 0.765942,-4.2545 1.701802,-4.2545 0.936297,0 1.701803,1.91442 1.701803,4.2545 0,2.34053 -0.765506,4.25494 -1.701803,4.25494 -0.93586,0 -1.701802,-1.91441 -1.701802,-4.25494 z m 10.211686,0 c 0,-2.34008 0.765942,-4.2545 1.701803,-4.2545 0.936296,0 1.702238,1.91442 1.702238,4.2545 0,2.34053 -0.765942,4.25494 -1.702238,4.25494 -0.935861,0 -1.701803,-1.91441 -1.701803,-4.25494 z m 10.211686,0 c 0,-2.34008 0.765942,-4.2545 1.701803,-4.2545 0.936296,0 1.702238,1.91442 1.702238,4.2545 0,2.34053 -0.765942,4.25494 -1.702238,4.25494 -0.935861,0 -1.701803,-1.91441 -1.701803,-4.25494 z m -207.971068,-19.1468 c -0.43569,-6.77671 -1.06962,-8.08422 -3.92295,-8.08422 -2.85333,0 -3.48769,1.30751 -3.92251,8.08422 -0.49494,7.7117 -0.3137,8.08422 3.92251,8.08422 4.23664,0 4.41746,-0.3747 3.92295,-8.08422 z m 13.61573,0 c -0.43569,-6.77671 -1.06962,-8.08422 -3.92295,-8.08422 -2.85333,0 -3.48769,1.30751 -3.92251,8.08422 -0.49495,7.7117 -0.3137,8.08422 3.92251,8.08422 4.23664,0 4.41745,-0.3747 3.92295,-8.08422 z m 35.740898,0 c -0.43569,-6.77671 -1.069182,-8.08422 -3.922511,-8.08422 -2.85333,0 -3.488129,1.30751 -3.922947,8.08422 -0.49451,7.7117 -0.313696,8.08422 3.922947,8.08422 4.236643,0 4.417454,-0.3747 3.922511,-8.08422 z m 13.615727,0 c -0.43569,-6.77671 -1.069182,-8.08422 -3.922511,-8.08422 -2.853765,0 -3.488129,1.30751 -3.922947,8.08422 -0.494507,7.7117 -0.313696,8.08422 3.922947,8.08422 4.236643,0 4.417454,-0.3747 3.922511,-8.08422 z m 35.740902,0 c -0.435689,-6.77671 -1.069182,-8.08422 -3.922511,-8.08422 -2.853329,0 -3.487693,1.30751 -3.922511,8.08422 -0.494943,7.7117 -0.313696,8.08422 3.922511,8.08422 4.236643,0 4.417454,-0.3747 3.922511,-8.08422 z m 13.615727,0 c -0.435689,-6.77671 -1.069182,-8.08422 -3.922511,-8.08422 -2.853329,0 -3.487693,1.30751 -3.922511,8.08422 -0.494943,7.7117 -0.313696,8.08422 3.922511,8.08422 4.236643,0 4.417454,-0.3747 3.922511,-8.08422 z m 35.7413378,0 c -0.4356893,-6.77671 -1.0691816,-8.08422 -3.9225109,-8.08422 -2.85376511,0 -3.48812876,1.30751 -3.92294671,8.08422 -0.49494309,7.7117 -0.31369629,8.08422 3.92294671,8.08422 4.2366429,0 4.417454,-0.3747 3.9225109,-8.08422 z m 13.6157272,0 c -0.435689,-6.77671 -1.069182,-8.08422 -3.922947,-8.08422 -2.853329,0 -3.487693,1.30751 -3.922511,8.08422 -0.494943,7.7117 -0.313696,8.08422 3.922511,8.08422 4.237079,0 4.417454,-0.3747 3.922947,-8.08422 z m 37.44314,0 c -0.435689,-6.77671 -1.069617,-8.08422 -3.922946,-8.08422 -2.85333,0 -3.487693,1.30751 -3.922511,8.08422 -0.494943,7.7117 -0.313697,8.08422 3.922511,8.08422 4.236643,0 4.417454,-0.3747 3.922946,-8.08422 z m 13.615727,0 c -0.435689,-6.77671 -1.069617,-8.08422 -3.922946,-8.08422 -2.85333,0 -3.487693,1.30751 -3.922511,8.08422 -0.494943,7.7117 -0.313697,8.08422 3.922511,8.08422 4.236643,0 4.417454,-0.3747 3.922946,-8.08422 z M -109.29299,357.1234 c -0.0436,-13.24931 -0.46662,-15.25174 -4.12598,-19.1468 -5.59991,-5.9611 -14.97595,-5.98899 -20.54449,-0.061 -3.47201,3.69552 -4.13077,6.41204 -4.76339,19.64175 l -0.7337,15.35325 15.1036,-0.49494 15.10361,-0.49494 -0.0436,-14.79688 z m 85.097969,0 c -0.04357,-13.24931 -0.466623,-15.25174 -4.125978,-19.1468 -5.599915,-5.9611 -14.975949,-5.98899 -20.544494,-0.061 -3.472008,3.69552 -4.130771,6.41204 -4.763392,19.64175 l -0.7337,15.35325 15.103606,-0.49494 15.103606,-0.49494 -0.04357,-14.79688 z m 85.097967,0 c -0.04357,-13.24931 -0.466623,-15.25174 -4.125978,-19.1468 -5.599915,-5.9611 -14.975949,-5.98899 -20.544494,-0.061 -3.472008,3.69552 -4.13077,6.41204 -4.763391,19.64175 l -0.733701,15.35325 15.103606,-0.49494 15.103606,-0.49494 -0.04357,-14.79688 z m 49.337464,18.65796 c -0.45486,-1.18725 -0.6274,-40.45288 -0.38341,-87.25681 l 0.44266,-85.09796 14.7385,-0.48972 c 13.51682,-0.44876 14.96593,-0.83652 17.48421,-4.68017 3.84975,-5.87527 13.39832,-5.87658 17.2472,-0.002 2.49127,3.80227 4.02577,4.23403 16.63331,4.68061 l 13.8889,0.49146 0,86.80021 0,86.79977 -39.612,0.45704 c -30.76576,0.3529 -39.7963,-0.0436 -40.43894,-1.70181 z m 19.63128,-18.49022 c 0,-11.2752 0.75636,-16.76097 2.78362,-20.19289 5.66658,-9.59257 17.78136,-12.93431 27.90765,-7.69776 7.82193,4.04494 10.15592,10.47266 10.15592,27.96864 l 0,15.40249 7.65898,0 7.65855,0 0,-82.54526 0,-82.54483 -11.82026,0 -11.82068,0 -0.51847,8.08421 c -0.51804,8.06853 -0.53198,8.08553 -7.16448,8.6284 -12.27511,1.0047 -14.62914,-0.45748 -14.62914,-9.08631 l 0,-7.6263 -12.76439,0 -12.76482,0 0,82.54483 0,82.54526 7.65898,0 7.65854,0 0,-15.48048 z m 0,-74.72333 c 0,-4.91675 0.70931,-6.80808 2.55314,-6.80808 2.0643,0 2.55271,-2.70433 2.55271,-14.12636 0,-14.88794 1.39769,-18.21094 7.65898,-18.21094 1.96583,0 4.49326,0.91931 5.61647,2.04251 1.58852,1.58853 2.49607,1.58853 4.08459,0 1.12321,-1.1232 3.65064,-2.04251 5.61647,-2.04251 6.18505,0 7.65898,3.35176 7.65898,17.41363 0,10.27748 0.58426,13.55299 2.55271,14.30847 1.66433,0.63829 2.55314,3.28554 2.55314,7.6054 l 0,6.62553 -20.42338,0 -20.42381,0 0,-6.80765 z m 37.44315,0 c 0,-3.17705 -1.13454,-3.40404 -17.01934,-3.40404 -15.88523,0 -17.01976,0.22656 -17.01976,3.40404 0,3.17705 1.13453,3.4036 17.01976,3.4036 15.8848,0 17.01934,-0.22655 17.01934,-3.4036 z m -20.78021,-20.84904 c -0.44832,-12.74174 -0.80907,-14.0414 -3.89811,-14.0414 -3.08904,0 -3.44979,1.29966 -3.89811,14.0414 l -0.49451,14.04096 4.39262,0 4.39262,0 -0.49451,-14.04096 z m 15.31797,0 c -0.44876,-12.74174 -0.80951,-14.0414 -3.89855,-14.0414 -3.0886,0 -3.44935,1.29966 -3.89811,14.0414 l -0.49451,14.04096 4.39262,0 4.39262,0 -0.49407,-14.04096 z m 2.86988,95.40463 c -0.0436,-13.24931 -0.46662,-15.25174 -4.12597,-19.1468 -5.59992,-5.9611 -14.97595,-5.98899 -20.5445,-0.061 -3.47201,3.69552 -4.13077,6.41204 -4.76339,19.64175 l -0.7337,15.35325 15.10361,-0.49494 15.1036,-0.49494 -0.0436,-14.79688 z M 156.7668,208.9581 c -0.49974,-8.67937 -0.66094,-8.93555 -5.6204,-8.93555 -4.95945,0 -5.12065,0.25705 -5.62039,8.93555 l -0.51455,8.93512 6.13494,0 6.13451,0 -0.51411,-8.93512 z m -744.38305,32.23186 c -0.47578,-1.23867 -0.64482,-10.24219 -0.3747,-20.00773 l 0.48841,-17.75564 140.41178,0 140.41134,0 0,19.57247 0,19.57247 -140.03578,0.43569 c -114.90696,0.35726 -140.19088,0.0436 -140.89975,-1.81726 z m 276.68058,-18.1909 0,-15.31753 -136.1564,0 -136.15683,0 0,15.31753 0,15.31753 136.15683,0 136.1564,0 0,-15.31753 z m 131.78948,18.1909 c -0.47533,-1.23867 -0.64482,-10.24219 -0.37469,-20.00773 l 0.48841,-17.75564 140.411776,0 140.411344,0 0,19.57247 0,19.57247 -140.03578,0.43569 c -114.90696,0.35726 -140.19045,0.0436 -140.89975,-1.81726 z m 276.680587,-18.1909 0,-15.31753 -136.156398,0 -136.156839,0 0,15.31753 0,15.31753 136.156839,0 136.156398,0 0,-15.31753 z M -676.70906,191.93833 c 0.0828,-2.10612 4.10202,-15.7005 8.93556,-30.20983 l 8.78741,-26.38011 22.32472,-0.4736 22.32473,-0.47316 1.89873,4.72811 c 4.42835,11.02598 17.04983,53.92352 16.24773,55.22187 -0.48144,0.77902 -7.35008,1.41599 -15.26351,1.41599 l -14.38864,0 -3.72078,-7.65854 c -2.10831,-4.3399 -4.90195,-7.65899 -6.44646,-7.65899 -1.54452,0 -4.33816,3.31909 -6.4469,7.65899 l -3.72079,7.65854 -15.33975,0 c -14.81692,0 -15.33452,-0.1307 -15.19205,-3.82927 z m 29.7981,-5.10584 c 7.354,-14.51761 13.64623,-15.43517 20.42643,-2.97837 l 4.63137,8.50988 9.94156,0 c 7.96745,0 9.94113,-0.53938 9.94113,-2.71652 0,-3.84148 -13.75689,-47.03746 -15.81988,-49.67381 -1.24259,-1.58809 -6.60767,-2.05167 -19.69055,-1.70224 l -17.98264,0.48056 -8.13127,25.52965 c -4.47191,14.04096 -8.1365,26.10346 -8.14347,26.80579 0,0.7019 4.94595,1.27657 11.00639,1.27657 10.72231,0 11.09439,-0.14814 13.82093,-5.53151 z m 68.90035,6.80764 c 0.0741,-1.16982 3.35089,-12.08384 7.28429,-24.25264 l 7.1514,-22.12561 17.76916,0 17.76871,0 7.15141,22.12561 c 3.9334,12.1688 7.21153,23.08282 7.28429,24.25264 0.10021,1.6321 -7.39844,2.12747 -32.20441,2.12747 -24.80598,0 -32.30637,-0.49537 -32.20485,-2.12747 z m 57.72361,-4.25494 c 0,-1.63775 -2.50522,-10.63692 -5.55461,-19.9977 l -5.54414,-17.01977 -14.56118,-0.4871 -14.56161,-0.48754 -5.45395,17.89899 c -2.99973,9.84484 -5.90055,19.06315 -6.44646,20.48524 -0.8618,2.24598 2.50608,2.58669 25.57017,2.58669 24.16681,0 26.56136,-0.27013 26.55178,-2.97881 z m 548.173845,4.25494 c 0.07407,-1.16982 3.350887,-12.08384 7.28429,-24.25264 l 7.151404,-22.12561 17.769154,0 17.768717,0 7.151405,22.12561 c 3.933403,12.1688 7.211094,23.08282 7.28429,24.25264 0.100208,1.6321 -7.398876,2.12747 -32.204412,2.12747 -24.805972,0 -32.306364,-0.49537 -32.204848,-2.12747 z m 57.723607,-4.25494 c 0,-1.63775 -2.507392,-10.63692 -5.55896,-19.9977 l -5.548504,-17.01977 -14.411295,0 -14.411296,0 -5.548939,17.01977 c -3.051568,9.36078 -5.553296,18.35995 -5.55896,19.9977 0,2.70476 2.336166,2.97881 25.519195,2.97881 23.183029,0 25.528344,-0.27449 25.518759,-2.97881 z m 24.865658,4.96642 c -0.80254,-1.29835 11.81895,-44.19589 16.24729,-55.22187 l 1.89917,-4.72811 22.32472,0.47316 22.32429,0.4736 8.78785,26.38011 c 4.8331,14.50933 8.85408,28.10371 8.93512,30.20983 0.14378,3.699 -0.37469,3.82927 -15.19205,3.82927 l -15.33975,0 -3.72079,-7.65854 c -2.10873,-4.3399 -4.90194,-7.65899 -6.44646,-7.65899 -1.54452,0 -4.33816,3.31909 -6.44689,7.65899 l -3.72079,7.65854 -14.3882,0 c -7.91386,0 -14.78251,-0.63697 -15.26351,-1.41599 z m 28.91801,-7.51912 c 7.354,-14.51761 13.64623,-15.43517 20.42642,-2.97837 l 4.63138,8.50988 10.79246,0 c 5.9354,0 10.78636,-0.57467 10.77939,-1.27657 0,-0.70233 -3.67155,-12.76483 -8.14347,-26.80579 l -8.13127,-25.52965 -19.00912,-0.48056 -19.00956,-0.48013 -7.95743,25.15888 c -4.37694,13.83705 -8.32341,26.11609 -8.77043,27.28635 -0.59907,1.56848 2.12921,2.12747 10.38858,2.12747 10.92796,0 11.26954,-0.13506 14.00305,-5.53151 z m -700.50304,-47.59122 c 0.0436,-8.49333 2.24337,-21.76355 3.62625,-21.76355 0.80602,0 1.46522,2.68036 1.46522,5.95674 0,5.21956 0.52675,5.95675 4.25451,5.95675 4.13338,0 4.25494,-0.33984 4.25494,-11.91349 0,-6.80808 0.72978,-11.91393 1.70224,-11.91393 0.97376,0 1.7018,5.14375 1.7018,12.02677 l 0,12.02677 4.68061,-0.53851 c 3.86282,-0.44441 4.86403,-1.57894 5.7328,-6.49526 l 1.05219,-5.95674 0.2222,6.38197 c 0.12199,3.51035 1.03651,6.38242 2.02901,6.38242 1.04478,0 1.58198,2.68776 1.27657,6.38241 l -0.5285,6.38241 -15.74319,0.48928 c -15.41426,0.47926 -15.74277,0.40955 -15.72839,-3.40404 z m 26.79795,-3.46765 c -0.43569,-1.31709 -4.70196,-2.32048 -11.20462,-2.63418 -8.56261,-0.4139 -10.50186,0 -10.50186,2.12747 0,2.11092 2.22594,2.63418 11.20419,2.63418 8.20403,0 11.01684,-0.56988 10.50229,-2.12747 z m 578.51743,6.09878 c -1.80114,-1.80114 -1.315346,-12.48119 0.567268,-12.48119 0.936296,0 1.802882,-2.87207 1.926182,-6.38242 l 0.222202,-6.38197 1.052625,5.95674 c 0.868329,4.91632 1.869543,6.05085 5.7328,6.49526 l 4.680175,0.53851 0,-12.02677 c 0,-6.88302 0.728037,-12.02677 1.702238,-12.02677 0.972459,0 1.701802,5.10585 1.701802,11.91393 0,11.57321 0.121993,11.91349 4.254942,11.91349 3.728194,0 4.254942,-0.73719 4.254942,-5.95675 0,-9.14686 2.796254,-7.06601 4.003114,2.97838 2.13357,17.76523 3.116486,16.59409 -13.931166,16.59409 -8.268948,0 -15.544524,-0.51062 -16.168867,-1.13453 z m 26.096919,-6.60549 c 0,-2.14751 -1.939689,-2.5405 -10.502291,-2.12747 -6.502663,0.3137 -10.769804,1.31709 -11.204622,2.63418 -0.514114,1.55759 2.298696,2.12747 10.502291,2.12747 8.97825,0 11.204622,-0.52326 11.204622,-2.63418 z m -725.549509,-6.95752 c -1.82772,-1.82815 -1.40553,-15.6016 0.51499,-16.78842 0.93586,-0.57859 1.7018,-4.07021 1.7018,-7.75962 0,-3.68898 0.76594,-6.70744 1.7018,-6.70744 0.9363,0 1.70224,3.06377 1.70224,6.80808 0,6.64557 0.13942,6.80765 5.95674,6.80765 l 5.95675,0 0,-14.466631 c 0,-8.509448 0.70102,-14.466628 1.70224,-14.466628 1.00121,0 1.7018,5.95718 1.7018,14.466628 l 0,14.466631 5.95674,0 c 5.81515,0 5.95718,-0.16121 5.95718,-6.80765 0,-3.74431 0.76551,-6.80808 1.70181,-6.80808 0.93586,0 1.7018,2.910405 1.7018,6.46781 0,3.55697 0.81517,7.28211 1.81116,8.27853 0.99598,0.99599 1.57066,5.16989 1.27657,9.27539 l -0.53459,7.46467 -18.81089,0.47795 c -10.34588,0.26141 -19.34504,-0.0566 -19.99814,-0.70887 z m 34.55409,-8.27897 c 0,-4.22313 -0.11328,-4.25494 -15.31753,-4.25494 -15.20425,0 -15.31797,0.0436 -15.31797,4.25494 0,4.22357 0.11328,4.25494 15.31797,4.25494 15.20381,0 15.31753,-0.0436 15.31753,-4.25494 z m 751.75099,8.27897 c -1.82772,-1.82815 -1.40554,-15.6016 0.51498,-16.78842 0.93586,-0.57859 1.70181,-4.07021 1.70181,-7.75962 0,-3.68898 0.76594,-6.70744 1.7018,-6.70744 0.93629,0 1.70224,3.06377 1.70224,6.80808 0,6.64557 0.14377,6.80765 5.95674,6.80765 l 5.95674,0 0,-14.466631 c 0,-8.509448 0.70103,-14.466628 1.70224,-14.466628 1.00078,0 1.70181,5.95718 1.70181,14.466628 l 0,14.466631 5.95674,0 c 5.81515,0 5.95674,-0.16121 5.95674,-6.80765 0,-3.74431 0.76595,-6.80808 1.70224,-6.80808 0.93586,0 1.70181,2.910405 1.70181,6.46781 0,3.55697 0.81517,7.28211 1.81116,8.27853 0.99598,0.99599 1.57066,5.16989 1.27657,9.27539 l -0.5346,7.46467 -18.81088,0.47795 c -10.34588,0.26141 -19.34504,-0.0566 -19.99814,-0.70887 z m 34.55408,-8.27897 c 0,-4.22313 -0.11328,-4.25494 -15.31753,-4.25494 -15.20425,0 -15.31796,0.0436 -15.31796,4.25494 0,4.22357 0.11328,4.25494 15.31796,4.25494 15.20382,0 15.31753,-0.0436 15.31753,-4.25494 z m -461.0264,-76.341481 c -1.58503,-1.910062 0.16992,-10.457415 8.29988,-40.3618101 5.67094,-20.8664689 11.14929,-38.9493179 12.17447,-40.1844979 1.41556,-1.705723 9.1656,-2.245107 32.25103,-2.245107 29.67349,0 30.44336,0.0915 32.76602,3.829274 3.35045,5.393833 21.9692,75.960677 20.82725,78.936435 -0.752,1.959295 -4.44621,2.354465 -18.3948,1.966702 l -17.45371,-0.485358 -7.68033,-14.021789 c -4.33598,-7.915155 -8.79265,-14.021341 -10.23348,-14.021341 -1.44126,0 -5.89749,6.106186 -10.23347,14.021341 l -7.68033,14.021789 -16.31569,0.483615 c -12.49339,0.370336 -16.78668,-0.08278 -18.32684,-1.939253 z m 38.10147,-14.28756 c 12.56484,-22.9808559 15.93359,-23.3477063 27.36695,-2.978359 l 8.12038,14.466615 14.16208,0 c 7.78926,0 14.13464,-0.574674 14.10152,-1.27657 -0.0436,-0.702331 -4.44577,-17.360028 -9.80562,-37.0174585 l -9.74506,-35.7413375 -29.74539,0 -29.74581,0 -9.74507,35.7413375 c -5.35941,19.6574305 -9.77207,36.3151275 -9.80562,37.0174585 -0.0436,0.701896 6.37936,1.27657 14.25009,1.27657 l 14.31022,0 6.28133,-11.488256 z m -13.30334,-74.703714 c -1.84253,-1.84253 -1.3746,-25.813285 0.52675,-26.988339 0.93586,-0.578596 1.7018,-6.751006 1.7018,-13.716372 0,-7.308252 0.71976,-12.664181 1.70224,-12.664181 0.98335,0 1.7018,5.389477 1.7018,12.764826 l 0,12.764825 10.21169,0 10.21169,0 0,-32.337294 c 0,-20.42381 0.62695,-32.3373 1.70223,-32.3373 1.07485,0 1.70181,11.91349 1.70181,32.3373 l 0,32.337294 10.21168,0 10.21169,0 0,-12.764825 c 0,-7.375349 0.71889,-12.764826 1.70224,-12.764826 0.97899,0 1.7018,5.276198 1.7018,12.424552 0,6.833352 0.80167,13.225785 1.78197,14.206086 1.01995,1.019949 1.56543,7.168397 1.27613,14.381234 l -0.50496,12.599699 -27.33297,0.466188 c -15.03259,0.257056 -27.86103,-0.061 -28.50759,-0.708867 z m 51.58562,-13.372612 0,-9.360785 -23.82742,0 -23.82741,0 0,9.360785 0,9.360785 23.82741,0 23.82742,0 0,-9.360785 z"
       id="path4471"
       inkscape:connector-curvature="0" />
  </g>
</svg>
