<?xml version="1.0" encoding="UTF-8" standalone="no"?>
<!-- Created with Inkscape (http://www.inkscape.org/) -->

<svg
   xmlns:dc="http://purl.org/dc/elements/1.1/"
   xmlns:cc="http://creativecommons.org/ns#"
   xmlns:rdf="http://www.w3.org/1999/02/22-rdf-syntax-ns#"
   xmlns:svg="http://www.w3.org/2000/svg"
   xmlns="http://www.w3.org/2000/svg"
   xmlns:sodipodi="http://sodipodi.sourceforge.net/DTD/sodipodi-0.dtd"
   xmlns:inkscape="http://www.inkscape.org/namespaces/inkscape"
   width="52.767502mm"
   height="34.313293mm"
   viewBox="0 0 52.767502 34.313293"
   version="1.1"
   id="svg1043"
   inkscape:version="0.92.3 (2405546, 2018-03-11)"
   sodipodi:docname="chennai_clipart.svg">
  <defs
     id="defs1037" />
  <sodipodi:namedview
     id="base"
     pagecolor="#ffffff"
     bordercolor="#666666"
     borderopacity="1.0"
     inkscape:pageopacity="0.0"
     inkscape:pageshadow="2"
     inkscape:zoom="1.979899"
     inkscape:cx="119.80892"
     inkscape:cy="44.412874"
     inkscape:document-units="mm"
     inkscape:current-layer="layer1"
     showgrid="false"
     fit-margin-top="0"
     fit-margin-left="0"
     fit-margin-right="0"
     fit-margin-bottom="0"
     inkscape:window-width="1299"
     inkscape:window-height="713"
     inkscape:window-x="67"
     inkscape:window-y="27"
     inkscape:window-maximized="1" />
  <metadata
     id="metadata1040">
    <rdf:RDF>
      <cc:Work
         rdf:about="">
        <dc:format>image/svg+xml</dc:format>
        <dc:type
           rdf:resource="http://purl.org/dc/dcmitype/StillImage" />
        <dc:title></dc:title>
      </cc:Work>
    </rdf:RDF>
  </metadata>
  <g
     inkscape:label="Layer 1"
     inkscape:groupmode="layer"
     id="layer1"
     transform="translate(-1.5864872,-158.13503)">
    <rect
       style="opacity:1;fill:#ffffff;fill-opacity:0;stroke:none;stroke-width:2.16019893;stroke-miterlimit:4;stroke-dasharray:none;stroke-opacity:1"
       id="rect1153-3"
       width="52.767502"
       height="34.313293"
       x="1.5864872"
       y="158.13503"
       ry="3.8624624e-12" />
    <path
       style="fill:#1a1a1a;stroke-width:0.04045058"
       d="m 28.070816,162.29656 c -0.0435,0 -0.06889,0.48194 -0.06889,1.3081 v 1.30803 H 27.588854 27.17578 v -0.51633 c 0,-0.29834 -0.02903,-0.51632 -0.06881,-0.51632 -0.03974,0 -0.06888,0.21663 -0.06888,0.51225 0,0.28176 -0.03095,0.53144 -0.0688,0.55484 -0.07691,0.0475 -0.09586,1.01714 -0.02133,1.09168 0.02615,0.0262 0.545075,0.0391 1.153154,0.0287 l 1.105604,-0.0188 0.02045,-0.50965 c 0.01169,-0.29177 -0.01037,-0.54047 -0.05162,-0.58173 -0.03965,-0.0397 -0.07207,-0.29828 -0.07207,-0.57469 0,-0.28916 -0.0292,-0.50255 -0.0688,-0.50255 -0.03978,0 -0.06888,0.21799 -0.06888,0.51632 v 0.51633 h -0.413084 -0.413075 v -1.30803 c 0,-0.82616 -0.02532,-1.3081 -0.0688,-1.3081 z m -0.96384,2.8227 h 0.96384 0.963834 v 0.37863 0.37863 h -0.963834 -0.96384 v -0.37863 z m 0.97065,1.17034 c -0.933816,0 -1.247283,0.0218 -1.304546,0.0908 -0.04147,0.05 -0.263079,0.78142 -0.492472,1.62548 -0.328855,1.20965 -0.399862,1.55541 -0.335746,1.63267 0.0623,0.0751 0.235976,0.0934 0.741338,0.0784 l 0.659942,-0.0195 0.31071,-0.56713 c 0.175393,-0.32017 0.355661,-0.5672 0.413964,-0.5672 0.05828,0 0.238566,0.24703 0.413961,0.5672 l 0.310637,0.56713 0.706009,0.0196 c 0.564229,0.0157 0.713658,-2.9e-4 0.74408,-0.0796 0.04619,-0.12037 -0.706917,-2.97486 -0.842441,-3.19304 -0.09395,-0.1512 -0.125127,-0.15487 -1.325436,-0.15487 z m -1.210108,0.24094 h 1.203298 1.203221 l 0.394185,1.44579 c 0.21681,0.79516 0.394866,1.46893 0.396629,1.49734 0.0013,0.0284 -0.255313,0.0517 -0.570389,0.0517 h -0.572916 l -0.328485,-0.5852 c -0.462489,-0.82395 -0.598754,-0.80916 -1.107009,0.12043 l -0.25405,0.46477 h -0.578836 c -0.318374,0 -0.578226,-0.0233 -0.576463,-0.0517 0.0014,-0.0284 0.17984,-0.70218 0.396631,-1.49734 z m 1.203298,2.99483 c -0.252041,0 -0.58657,0.15872 -0.642683,0.30494 -0.03146,0.082 -0.201429,0.10751 -0.817258,0.12302 l -0.777558,0.0195 -0.01778,6.50592 c -0.0098,3.57823 -0.0029,6.54502 0.01533,6.59287 h 7.5e-5 c 0.026,0.0688 0.514616,0.0831 2.255272,0.0688 l 2.222019,-0.0182 v -6.57472 -6.57473 l -0.77756,-0.0195 c -0.615815,-0.0154 -0.785784,-0.0411 -0.817253,-0.12303 -0.05612,-0.14622 -0.390573,-0.30494 -0.64261,-0.30494 z m 0.0038,0.16599 c 0.383952,0.002 0.70871,0.40732 0.547653,0.79614 -0.04891,0.1181 -0.175969,0.25971 -0.282345,0.31472 -0.106381,0.055 -0.233733,0.099 -0.28294,0.0972 -0.189966,-0.006 -0.452924,-0.20757 -0.537799,-0.41249 -0.117939,-0.28471 0.03619,-0.62721 0.338708,-0.75251 0.07246,-0.03 0.145619,-0.0435 0.216723,-0.0431 z m -0.0038,0.1782 c -0.03788,0 -0.06889,0.10368 -0.06889,0.23043 0,0.17093 0.04004,0.24972 0.154953,0.30515 0.193752,0.0935 0.327004,0.10269 0.327004,0.0227 0,-0.0338 -0.07747,-0.0808 -0.17213,-0.10458 -0.13544,-0.034 -0.172135,-0.0869 -0.172135,-0.24842 0,-0.11287 -0.03095,-0.20525 -0.0688,-0.20525 z m -2.06485,0.27538 0.636832,1.5e-4 0.636831,7e-5 0.0157,0.22243 c 0.02156,0.30545 0.222635,0.55229 0.535209,0.6569 0.482051,0.16133 0.940431,-0.12366 1.038351,-0.64557 l 0.04392,-0.23398 h 0.611941 0.611945 v 6.4026 6.40259 h -0.447517 -0.447511 l -0.0016,-1.46291 c -0.0011,-1.38986 -0.0089,-1.47666 -0.156356,-1.73695 -0.441528,-0.77957 -1.605656,-0.7622 -2.024699,0.0302 -0.15077,0.28521 -0.158579,0.36961 -0.158579,1.73473 h 7.14e-4 v 1.43491 h -0.447509 -0.447514 v -6.40259 z m -13.838425,1.03265 c -0.0405,0 -0.0689,0.24099 -0.0689,0.5852 v 0.58521 h -0.24094 c -0.23532,0 -0.24094,-0.007 -0.24094,-0.27538 0,-0.15146 -0.031,-0.27538 -0.0689,-0.27538 -0.0379,0 -0.0688,0.12208 -0.0688,0.27131 0,0.14924 -0.031,0.29048 -0.0689,0.31389 -0.0777,0.048 -0.0947,0.6051 -0.0208,0.67905 0.0264,0.0264 0.39047,0.0392 0.80896,0.0287 l 0.760894,-0.0193 0.02163,-0.30189 c 0.01189,-0.16607 -0.01134,-0.33494 -0.05162,-0.37522 -0.04029,-0.0403 -0.07325,-0.19098 -0.07325,-0.33486 0,-0.14391 -0.031,-0.26161 -0.0689,-0.26161 -0.0379,0 -0.0688,0.12392 -0.0688,0.27538 0,0.26885 -0.006,0.27538 -0.24094,0.27538 h -0.24101 v -0.5852 c 0,-0.34422 -0.0283,-0.58521 -0.0688,-0.58521 z m 31.806469,0 c -0.0405,0 -0.06881,0.24099 -0.06881,0.5852 v 0.58521 h -0.24094 c -0.235135,0 -0.241017,-0.007 -0.241017,-0.27538 0,-0.15146 -0.03093,-0.27538 -0.0688,-0.27538 -0.03786,0 -0.06888,0.12208 -0.06888,0.27131 0,0.14924 -0.03095,0.29048 -0.06881,0.31389 -0.07768,0.048 -0.09474,0.6051 -0.0208,0.67905 0.02643,0.0264 0.390393,0.0392 0.80889,0.0287 l 0.760965,-0.0193 0.02162,-0.30189 c 0.01188,-0.16607 -0.0114,-0.33494 -0.0517,-0.37522 -0.04029,-0.0403 -0.07325,-0.19098 -0.07325,-0.33486 0,-0.14391 -0.03095,-0.26161 -0.06881,-0.26161 -0.03788,0 -0.06888,0.12392 -0.06888,0.27538 0,0.26885 -0.0057,0.27538 -0.240937,0.27538 h -0.24094 v -0.5852 c 0,-0.34422 -0.0284,-0.58521 -0.06888,-0.58521 z m -15.319918,0.89132 c -0.151037,0.002 -0.302503,0.0609 -0.420629,0.17902 l -0.175316,0.17524 -0.175168,-0.17524 c -0.23713,-0.23722 -0.560244,-0.23472 -0.801112,0.006 -0.179725,0.17983 -0.181538,0.19102 -0.181538,1.20485 v 1.02324 h -0.17213 c -0.168247,0 -0.172062,0.0114 -0.172062,0.51632 v 2.9e-4 0.51632 h 1.514602 1.514602 v -0.51632 c 0,-0.5049 -0.0038,-0.51633 -0.172133,-0.51633 h -0.172132 v -1.03582 c 0,-1.00797 -0.0046,-1.04034 -0.169021,-1.20478 -0.116372,-0.11642 -0.26692,-0.17399 -0.417963,-0.17288 z m -12.837774,0.0726 c -0.03933,0 -0.06881,0.20656 -0.06881,0.48195 0,0.46816 -0.005,0.48188 -0.172129,0.48188 -0.150791,0 -0.172134,-0.0298 -0.172134,-0.24093 0,-0.13254 -0.02665,-0.24095 -0.05925,-0.24095 -0.05594,0 -0.14489,0.5368 -0.146653,0.88037 h -7.7e-5 c -5.82e-4,0.15426 0.01272,0.15707 0.63624,0.13768 l 0.636755,-0.0198 0.02141,-0.25812 c 0.01235,-0.14945 -0.0094,-0.2582 -0.05163,-0.2582 -0.04014,0 -0.07713,-0.11613 -0.08206,-0.25813 l -0.009,-0.2582 -0.04252,0.24095 c -0.03514,0.19886 -0.07565,0.24481 -0.231903,0.26278 l -0.189316,0.0218 v -0.48655 c 0,-0.27842 -0.0295,-0.48647 -0.06888,-0.48647 z m 24.508841,0 c -0.0394,0 -0.06888,0.20805 -0.06888,0.48647 v 0.48655 l -0.189314,-0.0218 c -0.156271,-0.018 -0.196705,-0.0639 -0.231828,-0.26278 l -0.04259,-0.24095 -0.009,0.2582 c -0.005,0.14199 -0.04004,0.25813 -0.07792,0.25813 -0.07615,0 -0.09574,0.43206 -0.02289,0.50491 0.02548,0.0252 0.319603,0.0458 0.653941,0.0458 0.689586,0 0.649804,0.0475 0.563499,-0.6712 -0.04882,-0.4063 -0.161909,-0.4905 -0.161909,-0.1205 0,0.21113 -0.02132,0.24094 -0.172132,0.24094 -0.167183,0 -0.172059,-0.0137 -0.172059,-0.48189 0,-0.27538 -0.02955,-0.48195 -0.06888,-0.48195 z m -12.824886,0.14287 c 0.09101,0.002 0.17913,0.0424 0.249977,0.12073 0.09473,0.10469 0.113915,0.29032 0.113915,1.10153 v 0.97562 h -0.378629 -0.378634 v -0.98762 c 0,-0.86933 0.01502,-1.00123 0.125839,-1.10153 0.08259,-0.0748 0.176521,-0.11083 0.267532,-0.10873 z m 1.170409,0 c 0.09101,0.002 0.179056,0.0424 0.249907,0.12073 0.09473,0.10469 0.113985,0.29032 0.113985,1.10153 v 0.97562 H 28.65587 28.277238 v -0.98762 c 0,-0.86933 0.01511,-1.00123 0.125915,-1.10153 0.08259,-0.0748 0.17652,-0.11083 0.267529,-0.10873 z m -16.503141,0.27019 c 0.61502,0 0.61958,0.002 0.61958,0.17214 0,0.17036 -0.005,0.17213 -0.61958,0.17213 -0.61503,0 -0.61964,-0.002 -0.61964,-0.17213 0,-0.17035 0.005,-0.17214 0.61964,-0.17214 z m 31.806469,0 c 0.615016,0 0.619646,0.002 0.619646,0.17214 0,0.17036 -0.0047,0.17213 -0.619646,0.17213 -0.615032,0 -0.619573,-0.002 -0.619573,-0.17213 0,-0.17035 0.0046,-0.17214 0.619573,-0.17214 z m -3.44805,0.69661 c 0.168185,0.002 0.212349,0.0267 0.212349,0.0918 0,0.0854 -0.09004,0.10659 -0.453218,0.10659 -0.331841,0 -0.445646,-0.023 -0.424849,-0.0861 0.01759,-0.0532 0.190177,-0.0939 0.453215,-0.10659 0.08659,-0.004 0.156437,-0.006 0.212503,-0.006 z m -24.910364,8e-5 c 0.05606,-5.8e-4 0.125909,0.002 0.212497,0.005 0.263038,0.0127 0.435596,0.0533 0.453219,0.10659 0.02082,0.063 -0.09299,0.0861 -0.424848,0.0861 -0.363176,0 -0.453219,-0.0212 -0.453219,-0.10658 0,-0.0645 0.04416,-0.0901 0.212351,-0.0918 z m -2.571391,0.0568 -0.903024,0.0191 -0.90303,0.0191 -0.35545,1.06709 c -0.19552,0.58691 -0.3581,1.13677 -0.36145,1.22196 -0.006,0.14961 0.0151,0.15495 0.61446,0.15495 h 0.62054 l 0.1505,-0.30982 c 0.0853,-0.17556 0.19832,-0.30983 0.26079,-0.30983 0.0625,0 0.17551,0.13427 0.26079,0.30983 l 0.15051,0.30982 h 0.582017 c 0.320103,0 0.597953,-0.0258 0.617426,-0.0573 0.03245,-0.0525 -0.478145,-1.78772 -0.657275,-2.23373 z m 30.053145,0 -0.07681,0.19124 c -0.179131,0.44601 -0.689663,2.1812 -0.657204,2.23372 0.01945,0.0315 0.29731,0.0573 0.617432,0.0573 h 0.581943 l 0.150503,-0.30981 c 0.0853,-0.17556 0.198313,-0.30983 0.260792,-0.30983 0.06248,0 0.17549,0.13427 0.260789,0.30983 l 0.150508,0.30981 h 0.620533 c 0.599371,0 0.620281,-0.005 0.61446,-0.15494 -0.0033,-0.0852 -0.16587,-0.63505 -0.361373,-1.22196 l -0.355523,-1.06709 -0.903026,-0.0192 z m 0.12569,0.1371 0.768967,0.0194 0.768963,0.0195 0.328862,1.03271 c 0.180893,0.56797 0.329451,1.05594 0.329451,1.08435 2.64e-4,0.0284 -0.195945,0.0516 -0.436033,0.0516 h -0.436555 l -0.187389,-0.34426 c -0.274261,-0.50388 -0.528746,-0.46674 -0.826219,0.12051 -0.110572,0.21829 -0.124423,0.22375 -0.566468,0.22375 -0.334094,0 -0.444415,-0.0226 -0.420179,-0.0861 0.01807,-0.0473 0.177731,-0.54403 0.354779,-1.10376 z m -30.774339,0.0152 c 0.28666,0.002 0.41811,0.0249 0.45581,0.0731 0.08345,0.10664 0.639944,1.85391 0.639944,2.0093 0,0.0881 -0.07982,0.10991 -0.40211,0.10991 h -0.402184 l -0.18732,-0.34426 c -0.27426,-0.50388 -0.52882,-0.46674 -0.82629,0.1205 -0.11029,0.21777 -0.12534,0.22376 -0.55906,0.22376 -0.24515,0 -0.44522,-0.0232 -0.44522,-0.0516 2.91e-4,-0.0284 0.14856,-0.51638 0.32945,-1.08435 l 0.32886,-1.03271 0.72741,-0.0195 c 0.1323,-0.004 0.24516,-0.005 0.34071,-0.005 z m 2.648866,0.36789 -0.289306,0.89496 c -0.159108,0.49223 -0.291642,0.93378 -0.294639,0.9811 -0.0041,0.066 0.299281,0.0861 1.302696,0.0861 1.003413,0 1.30675,-0.0201 1.302692,-0.0861 -0.003,-0.0473 -0.135531,-0.48887 -0.294638,-0.9811 l -0.289306,-0.89496 h -0.718748 z m 24.508923,0 -0.289308,0.89496 c -0.15911,0.49223 -0.291645,0.93378 -0.294643,0.9811 -0.0041,0.066 0.299281,0.0861 1.302697,0.0861 1.003395,0 1.306751,-0.0201 1.302692,-0.0861 -0.003,-0.0473 -0.135527,-0.48887 -0.294637,-0.9811 l -0.289306,-0.89496 h -0.718749 z m -24.384859,0.1671 0.588984,0.0197 0.589056,0.0197 0.224202,0.68845 c 0.12335,0.37865 0.22472,0.74272 0.22472,0.80897 3.97e-4,0.10957 -0.09649,0.1205 -1.074049,0.1205 -0.932956,0 -1.069208,-0.0138 -1.03435,-0.10465 0.02209,-0.0575 0.139452,-0.43044 0.260792,-0.82867 z m 24.520696,0.0394 h 0.582909 0.58298 l 0.224428,0.68845 c 0.123436,0.37865 0.224867,0.74271 0.224867,0.80896 5.29e-4,0.10939 -0.09451,0.12051 -1.032275,0.12051 -0.937768,0 -1.032274,-0.0111 -1.032274,-0.12051 2.64e-4,-0.0662 0.10143,-0.43031 0.224866,-0.80896 z m -12.979687,0.65408 h 1.308099 1.308028 v 0.30975 0.30982 H 28.070739 26.76264 v -0.30982 z m 0.481952,0.13769 c -0.03785,0 -0.06888,0.0774 -0.06888,0.17206 0,0.0947 0.03103,0.17213 0.06888,0.17213 0.03788,0 0.06881,-0.0775 0.06881,-0.17213 0,-0.0947 -0.03093,-0.17206 -0.06881,-0.17206 z m 0.413002,0 c -0.03785,0 -0.06881,0.0774 -0.06881,0.17206 0,0.0947 0.03095,0.17213 0.06881,0.17213 0.03788,0 0.06888,-0.0775 0.06888,-0.17213 0,-0.0947 -0.03101,-0.17206 -0.06888,-0.17206 z m 0.413145,0 c -0.03787,0 -0.06888,0.0774 -0.06888,0.17206 0,0.0947 0.03101,0.17213 0.06888,0.17213 0.03785,0 0.06881,-0.0775 0.06881,-0.17213 0,-0.0947 -0.03096,-0.17206 -0.06881,-0.17206 z m 0.413075,0 c -0.03788,0 -0.06888,0.0774 -0.06888,0.17206 0,0.0947 0.03101,0.17213 0.06888,0.17213 0.03785,0 0.0688,-0.0775 0.0688,-0.17213 0,-0.0947 -0.03095,-0.17206 -0.0688,-0.17206 z m 0.413073,0 c -0.03787,0 -0.06888,0.0774 -0.06888,0.17206 -5e-6,0.0947 0.03101,0.17213 0.06888,0.17213 0.03785,0 0.0688,-0.0775 0.0688,-0.17213 0,-0.0947 -0.03095,-0.17206 -0.0688,-0.17206 z m -16.763786,0.88621 c -0.13548,0 -0.271,0.0594 -0.34886,0.17821 -0.10077,0.15379 -0.16282,0.17126 -0.67282,0.18931 l -0.5618,0.0198 -0.0179,3.44227 c -0.01,1.89325 -0.003,3.48158 0.0156,3.5296 0.026,0.067 0.39128,0.0831 1.635769,0.0688 l 1.602297,-0.0185 v -3.51116 -3.51108 l -0.596166,-0.0197 c -0.546751,-0.0182 -0.6054,-0.034 -0.707271,-0.18939 -0.0779,-0.11881 -0.213289,-0.1782 -0.34878,-0.17821 z m 31.875349,0 c -0.135487,3e-5 -0.270991,0.0594 -0.348855,0.17829 -0.101868,0.15547 -0.160507,0.17115 -0.707269,0.18931 l -0.596167,0.0198 -0.01786,3.44227 c -0.0099,1.89325 -0.0029,3.48158 0.01548,3.5296 0.02601,0.067 0.391279,0.0831 1.635773,0.0689 l 1.60237,-0.0185 v -3.51108 -3.51116 l -0.561875,-0.0198 c -0.509979,-0.0181 -0.57205,-0.0355 -0.672822,-0.18931 -0.07785,-0.11882 -0.213296,-0.17823 -0.348784,-0.17821 z m -31.875419,0.24968 c 0.20061,0 0.2071,0.0104 0.22731,0.36146 l 0.0208,0.36144 h -0.24813 -0.24812 l 0.0208,-0.36144 c 0.0202,-0.35107 0.0267,-0.36146 0.22731,-0.36146 z m 31.875419,0 c 0.200615,0 0.207174,0.0104 0.227389,0.36146 l 0.02074,0.36144 h -0.248132 -0.248126 l 0.02082,-0.36144 c 0.02021,-0.35107 0.0267,-0.36146 0.227314,-0.36146 z m -29.878792,0.1377 -0.0197,0.71823 c -0.01093,0.39502 -0.0041,0.75922 0.0151,0.80933 h 7.6e-5 c 0.02868,0.0753 1.051418,0.088 5.69947,0.0735 l 5.664515,-0.0176 v -0.7917 -0.79178 h -5.679697 z m 16.522843,0 -0.01971,0.71823 c -0.01093,0.39502 -0.0041,0.75922 0.01511,0.80933 h 7.4e-5 c 0.02869,0.0753 1.05142,0.088 5.699474,0.0735 l 5.664518,-0.0176 v -0.7917 -0.79178 H 36.33227 Z m -19.93082,0.17213 h 0.48195 0.48188 v 0.30849 c 0,0.34904 0.0952,0.40816 0.5918,0.36752 0.26829,-0.022 0.26881,-0.0227 0.28975,-0.34901 l 0.021,-0.327 h 0.512544 0.512548 v 3.33902 3.33895 h -0.309748 -0.309822 v -0.62306 c 0,-0.70772 -0.09445,-0.96775 -0.410852,-1.13137 -0.40961,-0.21182 -0.89964,-0.0766 -1.12886,0.31138 -0.082,0.13882 -0.11258,0.36072 -0.11258,0.8168 v 0.62617 h -0.30982 -0.30983 v -3.33895 z m 3.580035,0 h 5.50764 5.507639 v 0.61965 0.61957 h -5.507639 -5.50764 v -0.61957 z m 16.522843,0 h 5.507641 5.507636 v 0.61965 0.61957 H 36.3322 30.824559 v -0.61957 z m 11.703733,0 h 0.516324 0.516321 v 0.30849 c 0,0.34904 0.09526,0.40816 0.591799,0.36752 0.268285,-0.022 0.268793,-0.0227 0.289748,-0.34901 l 0.02103,-0.327 h 0.478102 0.478179 v 3.33902 3.33895 h -0.309819 -0.309825 v -0.62306 c 0,-0.70772 -0.09437,-0.96775 -0.410776,-1.13137 -0.409615,-0.21182 -0.899716,-0.0766 -1.128932,0.31138 -0.082,0.13882 -0.112586,0.36072 -0.112586,0.8168 v 0.62617 h -0.309745 -0.309824 v -3.33895 z m -30.670641,1.44572 c -0.25328,0 -0.30983,0.13444 -0.30983,0.73667 0,0.46203 -0.0198,0.57143 -0.10325,0.57143 -0.0746,0 -0.10325,0.0765 -0.10325,0.27538 v 0.27539 h 0.82615 0.826145 v -0.26805 c 0,-0.17475 -0.036,-0.28179 -0.103325,-0.30761 -0.0796,-0.0306 -0.10325,-0.16303 -0.10325,-0.57876 0,-0.56881 -0.0596,-0.70445 -0.30975,-0.70445 -0.0795,0 -0.18178,0.0372 -0.22723,0.0827 -0.0643,0.0642 -0.10099,0.0642 -0.16525,0 -0.0454,-0.0455 -0.14764,-0.0827 -0.22716,-0.0827 z m 31.806611,0 c -0.253275,0 -0.309825,0.13444 -0.309825,0.73667 0,0.46203 -0.01976,0.57143 -0.103251,0.57143 -0.07459,0 -0.103325,0.0765 -0.103325,0.27538 v 0.27539 h 0.826149 0.826143 v -0.26805 c 0,-0.17475 -0.03592,-0.28179 -0.103246,-0.30761 -0.07963,-0.0306 -0.103251,-0.16303 -0.103251,-0.57876 0,-0.56881 -0.05963,-0.70445 -0.309825,-0.70445 -0.07952,0 -0.181731,0.0372 -0.22716,0.0827 -0.06426,0.0642 -0.100994,0.0642 -0.165248,0 -0.04544,-0.0455 -0.147643,-0.0827 -0.227161,-0.0827 z m -31.806611,0.17213 c 0.12495,0 0.13955,0.0526 0.15769,0.56803 l 0.02,0.56794 h -0.17769 -0.17769 l 0.02,-0.56794 c 0.0181,-0.51542 0.0327,-0.56803 0.15769,-0.56803 z m 0.61964,0 c 0.12496,0 0.13954,0.0526 0.15769,0.56803 l 0.0199,0.56794 h -0.17761 -0.17769 l 0.02,-0.56794 c 0.0182,-0.51542 0.0327,-0.56803 0.15769,-0.56803 z m 31.186971,0 c 0.124952,0 0.139475,0.0526 0.157615,0.56803 l 0.02,0.56794 h -0.177614 -0.177689 l 0.02,-0.56794 c 0.01812,-0.51542 0.03274,-0.56803 0.157689,-0.56803 z m 0.619569,0 c 0.124955,0 0.139536,0.0526 0.157689,0.56803 l 0.02,0.56794 h -0.177689 -0.177686 l 0.02,-0.56794 c 0.01815,-0.51542 0.03275,-0.56803 0.157689,-0.56803 z m -30.154245,0.13769 -0.01807,2.47814 c -0.01001,1.36296 -0.0032,2.51713 0.01511,2.56487 h 7.6e-5 c 0.02649,0.069 1.191344,0.0831 5.697844,0.0692 l 5.664514,-0.0176 v -2.54724 -2.54732 h -5.679697 z m 16.522915,0 -0.01807,2.47814 c -0.01003,1.36296 -0.0031,2.51713 0.01519,2.56487 0.02649,0.069 1.191344,0.0831 5.697842,0.0692 l 5.664514,-0.0176 v -2.54724 -2.54732 h -5.6797 z m -16.350857,0.17213 h 5.507636 5.50764 v 2.37519 2.37511 h -0.619645 -0.619573 v -0.62306 c 0,-0.42223 -0.03366,-0.68817 -0.104434,-0.82503 -0.194975,-0.37705 -0.724466,-0.51968 -1.137005,-0.30634 -0.316421,0.16362 -0.410852,0.42365 -0.410852,1.13137 v 0.62298 h -0.89503 -0.894953 v -0.62298 c 0,-0.70772 -0.09445,-0.96775 -0.410852,-1.13137 -0.409615,-0.21182 -0.899641,-0.0766 -1.12886,0.31138 -0.082,0.13882 -0.11258,0.36072 -0.11258,0.8168 v 0.62617 h -0.894954 -0.895029 v -0.62617 c 0,-0.45608 -0.03058,-0.67798 -0.112581,-0.8168 -0.230996,-0.39105 -0.741898,-0.52889 -1.123898,-0.30324 -0.329744,0.19478 -0.415812,0.42663 -0.415812,1.12004 v 0.62617 h -0.619574 -0.619644 v -2.37511 z m 16.522915,0 h 5.507641 5.507635 v 2.37519 2.37511 h -0.619646 -0.619572 v -0.62306 c 0,-0.42223 -0.03366,-0.68817 -0.104434,-0.82503 -0.194974,-0.37705 -0.724466,-0.51968 -1.137004,-0.30634 -0.316423,0.16362 -0.410853,0.42365 -0.410853,1.13137 v 0.62298 h -0.894953 -0.89503 v -0.62298 c 0,-0.70772 -0.09437,-0.96775 -0.410776,-1.13137 -0.409596,-0.21182 -0.899719,-0.0766 -1.128932,0.31138 -0.08201,0.13882 -0.112583,0.36072 -0.112583,0.8168 v 0.62617 h -0.894956 -0.895027 v -0.62617 c 0,-0.45608 -0.03056,-0.67798 -0.11258,-0.8168 -0.230998,-0.39105 -0.741881,-0.52889 -1.123897,-0.30324 -0.329743,0.19478 -0.415814,0.42663 -0.415814,1.12004 v 0.62617 h -0.619575 -0.619644 v -2.37511 z m -14.774339,0.55328 c -0.08874,-0.002 -0.1723,0.0223 -0.203237,0.0724 -0.03331,0.0539 -0.06721,0.0539 -0.121101,0 -0.09947,-0.0995 -0.343631,-0.0953 -0.446625,0.008 -0.04544,0.0455 -0.08259,0.23131 -0.08259,0.41307 v 0.33049 h -0.241012 -0.240944 v 0.44751 0.44744 h 5.094566 5.094566 v -0.44744 -0.44751 h -0.241012 -0.240944 v -0.33049 c 4e-6,-0.18176 -0.03715,-0.36762 -0.08258,-0.41307 -0.103046,-0.10304 -0.37556,-0.10783 -0.437438,-0.008 -0.03332,0.0539 -0.06721,0.0539 -0.121102,0 -0.09947,-0.0995 -0.343634,-0.0953 -0.446624,0.008 -0.04544,0.0455 -0.08259,0.23131 -0.08259,0.41307 v 0.33049 h -0.413074 -0.41307 v -0.33049 c 0,-0.18176 -0.03715,-0.36762 -0.08259,-0.41307 -0.103066,-0.10304 -0.375565,-0.10783 -0.437439,-0.008 -0.03331,0.0539 -0.06721,0.0539 -0.121101,0 -0.09947,-0.0995 -0.343631,-0.0953 -0.446624,0.008 -0.04544,0.0455 -0.08266,0.23131 -0.08266,0.41307 v 0.33049 h -0.413074 -0.413073 v -0.33049 c 0,-0.18176 -0.03715,-0.36762 -0.08258,-0.41307 -0.103047,-0.10304 -0.375564,-0.10783 -0.437443,-0.008 -0.03331,0.0539 -0.0672,0.0539 -0.121097,0 -0.09947,-0.0995 -0.343634,-0.0953 -0.446628,0.008 -0.04543,0.0455 -0.08258,0.23131 -0.08258,0.41307 v 0.33049 h -0.413074 -0.413074 v -0.33049 c 0,-0.18176 -0.03715,-0.36762 -0.08258,-0.41307 -0.103066,-0.10304 -0.375547,-0.10783 -0.43744,-0.008 -0.03331,0.0539 -0.06721,0.0539 -0.121101,0 -0.09947,-0.0995 -0.34363,-0.0953 -0.446627,0.008 -0.04543,0.0455 -0.08258,0.23131 -0.08258,0.41307 v 0.33049 H 16.81452 16.367009 v -0.33049 c 0,-0.18176 -0.03715,-0.36762 -0.08259,-0.41307 -0.05153,-0.0515 -0.145462,-0.0785 -0.234201,-0.0801 z m 16.522992,0 c -0.08874,-0.002 -0.172376,0.0223 -0.203314,0.0724 -0.03332,0.0539 -0.06721,0.0539 -0.121103,0 -0.09947,-0.0995 -0.34363,-0.0953 -0.446621,0.008 -0.04544,0.0455 -0.08258,0.23131 -0.08258,0.41307 v 0.33049 H 31.478649 31.23764 v 0.44751 0.44744 h 5.094565 5.094566 v -0.44744 -0.44751 h -0.240948 -0.241015 v -0.33049 c 0,-0.18176 -0.03715,-0.36762 -0.08259,-0.41307 -0.103048,-0.10304 -0.375563,-0.10783 -0.437441,-0.008 -0.03331,0.0539 -0.0672,0.0539 -0.1211,0 -0.09947,-0.0995 -0.34363,-0.0953 -0.446622,0.008 -0.04544,0.0455 -0.08259,0.23131 -0.08259,0.41307 v 0.33049 h -0.447508 -0.447442 v -0.33049 c 0,-0.18176 -0.03721,-0.36762 -0.08265,-0.41307 -0.10305,-0.10304 -0.375563,-0.10783 -0.437441,-0.008 -0.03331,0.0539 -0.06721,0.0539 -0.121102,0 -0.09947,-0.0995 -0.343575,-0.0953 -0.446553,0.008 -0.04545,0.0455 -0.08266,0.23131 -0.08266,0.41307 v 0.33049 H 37.296036 36.88296 v -0.33049 c 0,-0.18176 -0.03715,-0.36762 -0.08258,-0.41307 -0.103047,-0.10304 -0.375565,-0.10783 -0.437443,-0.008 -0.03331,0.0539 -0.06721,0.0539 -0.121097,0 -0.09947,-0.0995 -0.343633,-0.0953 -0.446628,0.008 -0.04544,0.0455 -0.08258,0.23131 -0.08258,0.41307 v 0.33049 h -0.413079 -0.413072 v -0.33049 c 0,-0.18176 -0.03723,-0.36762 -0.08266,-0.41307 -0.103063,-0.10304 -0.375563,-0.10783 -0.437441,-0.008 -0.03331,0.0539 -0.06713,0.0539 -0.121023,0 -0.09947,-0.0995 -0.343638,-0.0953 -0.446627,0.008 -0.04544,0.0455 -0.08266,0.23131 -0.08266,0.41307 v 0.33049 H 33.303 32.889924 v -0.33049 c 0,-0.18176 -0.03715,-0.36762 -0.08259,-0.41307 -0.05152,-0.0515 -0.145384,-0.0785 -0.234125,-0.0801 z m -17.066792,0.16962 c 0.115417,0 0.141102,0.0529 0.158725,0.32701 0.02003,0.31185 0.01265,0.32701 -0.158725,0.32701 -0.171352,0 -0.178671,-0.015 -0.158652,-0.32701 0.01759,-0.27413 0.04323,-0.32701 0.158652,-0.32701 z m 0.550763,0 c 0.11542,0 0.141102,0.0529 0.158728,0.32701 0.02002,0.31185 0.01265,0.32701 -0.158728,0.32701 -0.171353,0 -0.178672,-0.015 -0.158652,-0.32701 0.01759,-0.27413 0.04323,-0.32701 0.158652,-0.32701 z m 1.514603,0 c 0.115416,0 0.141101,0.0529 0.158723,0.32701 0.02003,0.31185 0.01265,0.32701 -0.158723,0.32701 -0.171353,0 -0.178676,-0.015 -0.158653,-0.32701 0.01759,-0.27413 0.04323,-0.32701 0.158653,-0.32701 z m 0.550762,0 c 0.115421,0 0.141101,0.0529 0.158728,0.32701 0.02002,0.31185 0.01265,0.32701 -0.158728,0.32701 -0.171371,0 -0.178653,-0.015 -0.158653,-0.32701 0.01759,-0.27413 0.04323,-0.32701 0.158653,-0.32701 z m 1.445792,0 c 0.115421,0 0.14103,0.0529 0.158652,0.32701 0.02,0.31185 0.01273,0.32701 -0.158652,0.32701 -0.171352,0 -0.178744,-0.015 -0.158724,-0.32701 0.01759,-0.27413 0.04331,-0.32701 0.158724,-0.32701 z m 0.550766,0 c 0.115417,0 0.141026,0.0529 0.158653,0.32701 0.02,0.31185 0.01272,0.32701 -0.158653,0.32701 -0.171352,0 -0.178747,-0.015 -0.158728,-0.32701 0.01759,-0.27413 0.04331,-0.32701 0.158728,-0.32701 z m 1.445717,0 c 0.11542,0 0.141029,0.0529 0.158652,0.32701 0.02003,0.31185 0.01272,0.32701 -0.158652,0.32701 -0.171368,0 -0.178657,-0.015 -0.158652,-0.32701 0.01759,-0.27413 0.04323,-0.32701 0.158652,-0.32701 z m 0.550762,0 c 0.115421,0 0.14103,0.0529 0.158653,0.32701 0.02002,0.31185 0.01272,0.32701 -0.158653,0.32701 -0.171368,0 -0.178652,-0.015 -0.158652,-0.32701 0.01759,-0.27413 0.04322,-0.32701 0.158652,-0.32701 z m 1.44572,0 c 0.115417,0 0.141102,0.0529 0.158725,0.32701 0.02003,0.31185 0.01265,0.32701 -0.158725,0.32701 -0.171352,0 -0.178671,-0.015 -0.158652,-0.32701 0.01759,-0.27413 0.04323,-0.32701 0.158652,-0.32701 z m 0.550763,0 c 0.11542,0 0.141102,0.0529 0.158728,0.32701 0.02002,0.31185 0.01265,0.32701 -0.158728,0.32701 -0.171353,0 -0.178672,-0.015 -0.158652,-0.32701 0.01759,-0.27413 0.04323,-0.32701 0.158652,-0.32701 z m 7.917343,0 c 0.115416,0 0.141025,0.0529 0.158652,0.32701 0.02,0.31185 0.0127,0.32701 -0.158652,0.32701 -0.171352,0 -0.178747,-0.015 -0.158729,-0.32701 0.0176,-0.27413 0.04331,-0.32701 0.158729,-0.32701 z m 0.550762,0 c 0.115416,0 0.141031,0.0529 0.158652,0.32701 0.02,0.31185 0.01273,0.32701 -0.158652,0.32701 -0.171352,0 -0.178747,-0.015 -0.158724,-0.32701 0.01757,-0.27413 0.04331,-0.32701 0.158724,-0.32701 z m 1.44572,0 c 0.115417,0 0.141026,0.0529 0.158652,0.32701 0.02003,0.31185 0.01273,0.32701 -0.158652,0.32701 -0.17137,0 -0.178657,-0.015 -0.158652,-0.32701 0.0176,-0.27413 0.04323,-0.32701 0.158652,-0.32701 z m 0.550762,0 c 0.115417,0 0.141031,0.0529 0.158652,0.32701 0.02003,0.31185 0.01273,0.32701 -0.158652,0.32701 -0.17137,0 -0.178654,-0.015 -0.158652,-0.32701 0.0176,-0.27413 0.04322,-0.32701 0.158652,-0.32701 z m 1.445718,0 c 0.115422,0 0.141105,0.0529 0.158729,0.32701 0.02003,0.31185 0.01265,0.32701 -0.158729,0.32701 -0.171352,0 -0.178671,-0.015 -0.158652,-0.32701 0.01757,-0.27413 0.04323,-0.32701 0.158652,-0.32701 z m 0.550767,0 c 0.115417,0 0.1411,0.0529 0.158724,0.32701 0.02003,0.31185 0.01265,0.32701 -0.158724,0.32701 -0.171355,0 -0.178676,-0.015 -0.158652,-0.32701 0.01757,-0.27413 0.04323,-0.32701 0.158652,-0.32701 z m 1.445792,0 c 0.115417,0 0.141026,0.0529 0.158652,0.32701 0.02003,0.31185 0.0127,0.32701 -0.158652,0.32701 -0.171373,0 -0.178747,-0.015 -0.158729,-0.32701 0.0176,-0.27413 0.04329,-0.32701 0.158729,-0.32701 z m 0.550762,0 c 0.115435,0 0.141028,0.0529 0.158652,0.32701 0.02,0.31185 0.01273,0.32701 -0.158652,0.32701 -0.171352,0 -0.178747,-0.015 -0.158724,-0.32701 0.0176,-0.27413 0.0433,-0.32701 0.158724,-0.32701 z m 1.514602,0 c 0.115417,0 0.141026,0.0529 0.158652,0.32701 0.02,0.31185 0.01273,0.32701 -0.158652,0.32701 -0.171352,0 -0.178747,-0.015 -0.158729,-0.32701 0.0176,-0.27413 0.04331,-0.32701 0.158729,-0.32701 z m 0.550762,0 c 0.115422,0 0.141025,0.0529 0.158652,0.32701 0.02,0.31185 0.01273,0.32701 -0.158652,0.32701 -0.171352,0 -0.178747,-0.015 -0.158724,-0.32701 0.01757,-0.27413 0.04331,-0.32701 0.158724,-0.32701 z m -28.467587,0.24094 c 0.64255,0 0.68845,0.009 0.68845,0.13769 0,0.12852 -0.0459,0.13769 -0.68845,0.13769 -0.64257,0 -0.68846,-0.009 -0.68846,-0.13769 0,-0.12854 0.0459,-0.13769 0.68846,-0.13769 z m 31.806539,0 c 0.642551,0 0.688453,0.009 0.688453,0.13769 0,0.12852 -0.0459,0.13769 -0.688453,0.13769 -0.64257,0 -0.688454,-0.009 -0.688454,-0.13769 0,-0.12854 0.04589,-0.13769 0.688454,-0.13769 z m -15.903194,0.25197 c 0.187065,0 0.374118,0.0394 0.494321,0.11836 0.41104,0.26981 0.433035,0.36235 0.457221,1.91879 l 0.02223,1.42854 h -0.973762 -0.973837 l 0.02222,-1.42854 c 0.0242,-1.55644 0.04619,-1.64898 0.457216,-1.91879 0.120206,-0.0789 0.30733,-0.11836 0.494401,-0.11836 z m -13.149528,0.3676 h 4.887992 4.887995 v 0.24101 0.24095 H 19.80928 14.921288 v -0.24095 z m 16.522915,0 h 4.887997 4.887989 v 0.24101 0.24095 H 36.3322 31.444203 v -0.24095 z m -15.972152,0.0689 c -0.03787,0 -0.06888,0.0775 -0.06888,0.17212 0,0.0947 0.03101,0.17206 0.06888,0.17206 0.03786,0 0.06881,-0.0774 0.06881,-0.17206 0,-0.0947 -0.03095,-0.17212 -0.06881,-0.17212 z m 0.413074,0 c -0.03785,0 -0.06888,0.0775 -0.06888,0.17212 0,0.0947 0.03103,0.17206 0.06888,0.17206 0.03787,0 0.06881,-0.0774 0.06881,-0.17206 0,-0.0947 -0.03093,-0.17212 -0.06881,-0.17212 z m 0.413074,0 c -0.03785,0 -0.06888,0.0775 -0.06888,0.17212 0,0.0947 0.03103,0.17206 0.06888,0.17206 0.03788,0 0.06881,-0.0774 0.06881,-0.17206 0,-0.0947 -0.03093,-0.17212 -0.06881,-0.17212 z m 0.413074,0 c -0.03786,0 -0.06888,0.0775 -0.06888,0.17212 0,0.0947 0.03103,0.17206 0.06888,0.17206 0.03787,0 0.0688,-0.0774 0.0688,-0.17206 0,-0.0947 -0.03093,-0.17212 -0.0688,-0.17212 z m 0.413074,0 c -0.03788,0 -0.06889,0.0775 -0.06889,0.17212 4e-6,0.0947 0.03101,0.17206 0.06889,0.17206 0.03785,0 0.0688,-0.0774 0.0688,-0.17206 0,-0.0947 -0.03095,-0.17212 -0.0688,-0.17212 z m 0.413069,0 c -0.03788,0 -0.06888,0.0775 -0.06888,0.17212 0,0.0947 0.03101,0.17206 0.06888,0.17206 0.03785,0 0.06881,-0.0774 0.06881,-0.17206 0,-0.0947 -0.03095,-0.17212 -0.06881,-0.17212 z m 0.413074,0 c -0.03788,0 -0.06888,0.0775 -0.06888,0.17212 0,0.0947 0.03101,0.17206 0.06888,0.17206 0.03786,0 0.06881,-0.0774 0.06881,-0.17206 0,-0.0947 -0.03095,-0.17212 -0.06881,-0.17212 z m 0.413074,0 c -0.03786,0 -0.06888,0.0775 -0.06888,0.17212 0,0.0947 0.03103,0.17206 0.06888,0.17206 0.03788,0 0.0688,-0.0774 0.0688,-0.17206 0,-0.0947 -0.03093,-0.17212 -0.0688,-0.17212 z m 0.412998,0 c -0.03785,0 -0.0688,0.0775 -0.0688,0.17212 0,0.0947 0.03095,0.17206 0.0688,0.17206 0.03787,0 0.06888,-0.0774 0.06888,-0.17206 0,-0.0947 -0.03101,-0.17212 -0.06888,-0.17212 z m 0.413074,0 c -0.03786,0 -0.06881,0.0775 -0.06881,0.17212 0,0.0947 0.03095,0.17206 0.06881,0.17206 0.03788,0 0.06888,-0.0774 0.06888,-0.17206 0,-0.0947 -0.03101,-0.17212 -0.06888,-0.17212 z m 0.413073,0 c -0.03786,0 -0.06881,0.0775 -0.06881,0.17212 0,0.0947 0.03095,0.17206 0.06881,0.17206 0.03787,0 0.06888,-0.0774 0.06888,-0.17206 0,-0.0947 -0.03101,-0.17212 -0.06888,-0.17212 z m 0.413146,0 c -0.03788,0 -0.06888,0.0775 -0.06888,0.17212 0,0.0947 0.03101,0.17206 0.06888,0.17206 0.03786,0 0.06881,-0.0774 0.06881,-0.17206 0,-0.0947 -0.03095,-0.17212 -0.06881,-0.17212 z m 0.412998,0 c -0.03788,0 -0.0688,0.0775 -0.0688,0.17212 0,0.0947 0.03093,0.17206 0.0688,0.17206 0.03785,0 0.06888,-0.0774 0.06888,-0.17206 0,-0.0947 -0.03103,-0.17212 -0.06888,-0.17212 z m 0.413073,0 c -0.03787,0 -0.0688,0.0775 -0.0688,0.17212 0,0.0947 0.03093,0.17206 0.0688,0.17206 0.03786,0 0.06888,-0.0774 0.06888,-0.17206 0,-0.0947 -0.03103,-0.17212 -0.06888,-0.17212 z m 0.413074,0 c -0.03786,0 -0.06881,0.0775 -0.06881,0.17212 0,0.0947 0.03095,0.17206 0.06881,0.17206 0.03788,0 0.06888,-0.0774 0.06888,-0.17206 0,-0.0947 -0.03101,-0.17212 -0.06888,-0.17212 z m 0.413074,0 c -0.03786,0 -0.06881,0.0775 -0.06881,0.17212 0,0.0947 0.03095,0.17206 0.06881,0.17206 0.03787,0 0.06888,-0.0774 0.06888,-0.17206 0,-0.0947 -0.03101,-0.17212 -0.06888,-0.17212 z m 0.41307,0 c -0.03785,0 -0.0688,0.0775 -0.0688,0.17212 0,0.0947 0.03095,0.17206 0.0688,0.17206 0.03788,0 0.06888,-0.0774 0.06888,-0.17206 0,-0.0947 -0.03101,-0.17212 -0.06888,-0.17212 z m 0.413074,0 c -0.03788,0 -0.0688,0.0775 -0.0688,0.17212 0,0.0947 0.03093,0.17206 0.0688,0.17206 0.03786,0 0.06888,-0.0774 0.06888,-0.17206 0,-0.0947 -0.03103,-0.17212 -0.06888,-0.17212 z m 0.413074,0 c -0.03788,0 -0.06881,0.0775 -0.06881,0.17212 0,0.0947 0.03093,0.17206 0.06881,0.17206 0.03785,0 0.06888,-0.0774 0.06888,-0.17206 0,-0.0947 -0.03103,-0.17212 -0.06888,-0.17212 z m 0.413073,0 c -0.03788,0 -0.06881,0.0775 -0.06881,0.17212 0,0.0947 0.03093,0.17206 0.06881,0.17206 0.03785,0 0.06888,-0.0774 0.06888,-0.17206 0,-0.0947 -0.03103,-0.17212 -0.06888,-0.17212 z m 0.413074,0 c -0.03785,0 -0.06881,0.0775 -0.06881,0.17212 0,0.0947 0.03095,0.17206 0.06881,0.17206 0.03788,0 0.06888,-0.0774 0.06888,-0.17206 0,-0.0947 -0.03101,-0.17212 -0.06888,-0.17212 z m 0.41307,0 c -0.03785,0 -0.0688,0.0775 -0.0688,0.17212 0,0.0947 0.03095,0.17206 0.0688,0.17206 0.03788,0 0.06888,-0.0774 0.06888,-0.17206 0,-0.0947 -0.031,-0.17212 -0.06888,-0.17212 z m 7.848461,0 c -0.03785,0 -0.06888,0.0775 -0.06888,0.17212 0,0.0947 0.03103,0.17206 0.06888,0.17206 0.03788,0 0.0688,-0.0774 0.0688,-0.17206 0,-0.0947 -0.03093,-0.17212 -0.0688,-0.17212 z m 0.41307,0 c -0.03785,0 -0.06888,0.0775 -0.06888,0.17212 0,0.0947 0.03103,0.17206 0.06888,0.17206 0.03788,0 0.06881,-0.0774 0.06881,-0.17206 0,-0.0947 -0.03093,-0.17212 -0.06881,-0.17212 z m 0.413073,0 c -0.03785,0 -0.06888,0.0775 -0.06888,0.17212 0,0.0947 0.03103,0.17206 0.06888,0.17206 0.03788,0 0.06881,-0.0774 0.06881,-0.17206 0,-0.0947 -0.03093,-0.17212 -0.06881,-0.17212 z m 0.413073,0 c -0.03787,0 -0.06888,0.0775 -0.06888,0.17212 0,0.0947 0.03101,0.17206 0.06888,0.17206 0.03786,0 0.06881,-0.0774 0.06881,-0.17206 0,-0.0947 -0.03095,-0.17212 -0.06881,-0.17212 z m 0.413075,0 c -0.03788,0 -0.06888,0.0775 -0.06888,0.17212 0,0.0947 0.03101,0.17206 0.06888,0.17206 0.03785,0 0.0688,-0.0774 0.0688,-0.17206 0,-0.0947 -0.03095,-0.17212 -0.0688,-0.17212 z m 0.413076,0 c -0.03788,0 -0.06888,0.0775 -0.06888,0.17212 0,0.0947 0.03101,0.17206 0.06888,0.17206 0.03785,0 0.0688,-0.0774 0.0688,-0.17206 0,-0.0947 -0.03096,-0.17212 -0.0688,-0.17212 z m 0.41307,0 c -0.03785,0 -0.06888,0.0775 -0.06888,0.17212 0,0.0947 0.03103,0.17206 0.06888,0.17206 0.03787,0 0.06881,-0.0774 0.06881,-0.17206 0,-0.0947 -0.03094,-0.17212 -0.06881,-0.17212 z m 0.413073,0 c -0.03785,0 -0.06888,0.0775 -0.06888,0.17212 0,0.0947 0.03103,0.17206 0.06888,0.17206 0.03788,0 0.06881,-0.0774 0.06881,-0.17206 0,-0.0947 -0.03093,-0.17212 -0.06881,-0.17212 z m 0.413072,0 c -0.03785,0 -0.06888,0.0775 -0.06888,0.17212 0,0.0947 0.03103,0.17206 0.06888,0.17206 0.03788,0 0.0688,-0.0774 0.0688,-0.17206 0,-0.0947 -0.03093,-0.17212 -0.0688,-0.17212 z m 0.413076,0 c -0.03788,0 -0.06888,0.0775 -0.06888,0.17212 0,0.0947 0.031,0.17206 0.06888,0.17206 0.03785,0 0.0688,-0.0774 0.0688,-0.17206 0,-0.0947 -0.03095,-0.17212 -0.0688,-0.17212 z m 0.413067,0 c -0.03787,0 -0.06888,0.0775 -0.06888,0.17212 0,0.0947 0.03101,0.17206 0.06888,0.17206 0.03786,0 0.06881,-0.0774 0.06881,-0.17206 0,-0.0947 -0.03095,-0.17212 -0.06881,-0.17212 z m 0.413073,0 c -0.03787,0 -0.06888,0.0775 -0.06888,0.17212 0,0.0947 0.03101,0.17206 0.06888,0.17206 0.03786,0 0.06881,-0.0774 0.06881,-0.17206 0,-0.0947 -0.03095,-0.17212 -0.06881,-0.17212 z m 0.413076,0 c -0.03788,0 -0.06888,0.0775 -0.06888,0.17212 0,0.0947 0.03101,0.17206 0.06888,0.17206 0.03785,0 0.06881,-0.0774 0.06881,-0.17206 0,-0.0947 -0.03095,-0.17212 -0.06881,-0.17212 z m 0.413072,0 c -0.03786,0 -0.06888,0.0775 -0.06888,0.17212 0,0.0947 0.03103,0.17206 0.06888,0.17206 0.03787,0 0.0688,-0.0774 0.0688,-0.17206 0,-0.0947 -0.03093,-0.17212 -0.0688,-0.17212 z m 0.413076,0 c -0.03786,0 -0.06888,0.0775 -0.06888,0.17212 0,0.0947 0.03103,0.17206 0.06888,0.17206 0.03788,0 0.0688,-0.0774 0.0688,-0.17206 0,-0.0947 -0.03093,-0.17212 -0.0688,-0.17212 z m 0.412999,0 c -0.03786,0 -0.06881,0.0775 -0.06881,0.17212 0,0.0947 0.03095,0.17206 0.06881,0.17206 0.03788,0 0.06888,-0.0774 0.06888,-0.17206 0,-0.0947 -0.03101,-0.17212 -0.06888,-0.17212 z m 0.413144,0 c -0.03788,0 -0.06888,0.0775 -0.06888,0.17212 0,0.0947 0.03101,0.17206 0.06888,0.17206 0.03785,0 0.06881,-0.0774 0.06881,-0.17206 0,-0.0947 -0.03095,-0.17212 -0.06881,-0.17212 z m 0.413073,0 c -0.03787,0 -0.06888,0.0775 -0.06888,0.17212 0,0.0947 0.03101,0.17206 0.06888,0.17206 0.03785,0 0.06881,-0.0774 0.06881,-0.17206 0,-0.0947 -0.03096,-0.17212 -0.06881,-0.17212 z m 0.413075,0 c -0.03788,0 -0.06888,0.0775 -0.06888,0.17212 0,0.0947 0.03101,0.17206 0.06888,0.17206 0.03785,0 0.0688,-0.0774 0.0688,-0.17206 0,-0.0947 -0.03095,-0.17212 -0.0688,-0.17212 z m 0.412996,0 c -0.03785,0 -0.06881,0.0775 -0.06881,0.17212 0,0.0947 0.03096,0.17206 0.06881,0.17206 0.03788,0 0.06888,-0.0774 0.06888,-0.17206 0,-0.0947 -0.03101,-0.17212 -0.06888,-0.17212 z m 0.413076,0 c -0.03785,0 -0.06881,0.0775 -0.06881,0.17212 0,0.0947 0.03095,0.17206 0.06881,0.17206 0.03788,0 0.06888,-0.0774 0.06888,-0.17206 0,-0.0947 -0.03101,-0.17212 -0.06888,-0.17212 z m 0.413072,0 c -0.03786,0 -0.06881,0.0775 -0.06881,0.17212 0,0.0947 0.03095,0.17206 0.06881,0.17206 0.03788,0 0.06888,-0.0774 0.06888,-0.17206 0,-0.0947 -0.03101,-0.17212 -0.06888,-0.17212 z m -7.778763,1.50896 c 0.151289,4.5e-4 0.302699,0.061 0.415962,0.18162 0.148024,0.15756 0.165111,0.23851 0.166875,0.77444 l -1.45e-4,8e-5 0.0019,0.59853 -0.610907,0.02 -0.610981,0.02 0.0297,-0.62105 c 0.02559,-0.53515 0.05221,-0.64503 0.192651,-0.79452 0.112626,-0.1199 0.263785,-0.17954 0.415073,-0.1791 z m 3.4422,0 c 0.151289,4.5e-4 0.302773,0.061 0.416034,0.18162 0.148026,0.15756 0.16511,0.23851 0.166872,0.77444 l -1.43e-4,8e-5 0.0019,0.59853 -0.610979,0.02 -0.610907,0.02 0.02963,-0.62105 c 0.02559,-0.53515 0.05228,-0.64503 0.19272,-0.79452 0.112625,-0.1199 0.26371,-0.17954 0.414996,-0.1791 z m 3.442274,0 c 0.151286,4.5e-4 0.302776,0.061 0.416036,0.18162 0.148022,0.15756 0.165108,0.23851 0.166873,0.77444 l -1.43e-4,8e-5 0.0019,0.59853 -0.610978,0.02 -0.610907,0.02 0.02962,-0.62105 c 0.02561,-0.53515 0.05228,-0.64503 0.192728,-0.79452 0.112625,-0.1199 0.263707,-0.17954 0.414996,-0.1791 z m 4.19961,0 c 0.151289,4.5e-4 0.302702,0.061 0.415965,0.18162 0.148021,0.15756 0.16511,0.23851 0.166875,0.77444 l -1.43e-4,8e-5 0.0019,0.59853 -0.610978,0.02 -0.610907,0.02 0.0297,-0.62105 c 0.02558,-0.53515 0.0522,-0.64503 0.192651,-0.79452 0.112625,-0.1199 0.263784,-0.17954 0.41507,-0.1791 z m -31.807277,0.005 c 0.17964,0 0.29786,0.0495 0.41433,0.17347 0.14031,0.14936 0.16713,0.25943 0.19257,0.7917 l 0.0296,0.61824 h -0.63645 -0.63646 l 0.0296,-0.61824 c 0.0255,-0.53227 0.0523,-0.64234 0.19257,-0.7917 0.11648,-0.12399 0.23467,-0.17347 0.41433,-0.17347 z m 4.199538,0 c 0.179638,0 0.29793,0.0495 0.414405,0.17347 0.140305,0.14936 0.167052,0.25943 0.192501,0.7917 l 0.02955,0.61824 h -0.636459 -0.63646 l 0.02955,-0.61824 c 0.02545,-0.53227 0.05226,-0.64234 0.192578,-0.7917 0.11646,-0.12399 0.234675,-0.17347 0.414333,-0.17347 z m 3.442271,0 c 0.179642,0 0.297858,0.0495 0.414333,0.17347 0.140305,0.14936 0.167128,0.25943 0.192573,0.7917 l 0.02955,0.61824 h -0.63646 -0.63646 l 0.02955,-0.61824 c 0.02545,-0.53227 0.05226,-0.64234 0.192578,-0.7917 0.116456,-0.12399 0.234671,-0.17347 0.414328,-0.17347 z m 3.442275,0 c 0.179642,0 0.297858,0.0495 0.414333,0.17347 0.140301,0.14936 0.167124,0.25943 0.192574,0.7917 l 0.02955,0.61824 h -0.636459 -0.63646 l 0.02955,-0.61824 c 0.02545,-0.53227 0.05219,-0.64234 0.192502,-0.7917 0.116475,-0.12399 0.234747,-0.17347 0.414405,-0.17347 z"
       id="path4471-6"
       inkscape:connector-curvature="0" />
    <text
       id="text1180-7"
       y="189.0295"
       x="17.112511"
       style="font-style:normal;font-variant:normal;font-weight:normal;font-stretch:normal;font-size:4.52450514px;line-height:1.25;font-family:Roboto;-inkscape-font-specification:Roboto;letter-spacing:0px;word-spacing:0px;fill:#1a1a1a;fill-opacity:1;stroke:none;stroke-width:0.11311262"
       xml:space="preserve"><tspan
         style="font-style:normal;font-variant:normal;font-weight:normal;font-stretch:normal;font-family:Montserrat;-inkscape-font-specification:Montserrat;fill:#1a1a1a;stroke-width:0.11311262"
         y="189.0295"
         x="17.112511"
         id="tspan1178-5"
         sodipodi:role="line">CHENNAI</tspan></text>
  </g>
</svg>
