<?xml version="1.0" encoding="UTF-8" standalone="no"?>
<!-- Created with Inkscape (http://www.inkscape.org/) -->

<svg
   xmlns:dc="http://purl.org/dc/elements/1.1/"
   xmlns:cc="http://creativecommons.org/ns#"
   xmlns:rdf="http://www.w3.org/1999/02/22-rdf-syntax-ns#"
   xmlns:svg="http://www.w3.org/2000/svg"
   xmlns="http://www.w3.org/2000/svg"
   xmlns:sodipodi="http://sodipodi.sourceforge.net/DTD/sodipodi-0.dtd"
   xmlns:inkscape="http://www.inkscape.org/namespaces/inkscape"
   width="52.767502mm"
   height="34.313293mm"
   viewBox="0 0 52.767502 34.313293"
   version="1.1"
   id="svg1043"
   inkscape:version="0.92.3 (2405546, 2018-03-11)"
   sodipodi:docname="jaipur_clipart.svg">
  <defs
     id="defs1037" />
  <sodipodi:namedview
     id="base"
     pagecolor="#ffffff"
     bordercolor="#666666"
     borderopacity="1.0"
     inkscape:pageopacity="0.0"
     inkscape:pageshadow="2"
     inkscape:zoom="0.98994949"
     inkscape:cx="401.92001"
     inkscape:cy="-31.247523"
     inkscape:document-units="mm"
     inkscape:current-layer="layer1"
     showgrid="false"
     fit-margin-top="0"
     fit-margin-left="0"
     fit-margin-right="0"
     fit-margin-bottom="0"
     inkscape:window-width="1299"
     inkscape:window-height="713"
     inkscape:window-x="67"
     inkscape:window-y="27"
     inkscape:window-maximized="1" />
  <metadata
     id="metadata1040">
    <rdf:RDF>
      <cc:Work
         rdf:about="">
        <dc:format>image/svg+xml</dc:format>
        <dc:type
           rdf:resource="http://purl.org/dc/dcmitype/StillImage" />
        <dc:title></dc:title>
      </cc:Work>
    </rdf:RDF>
  </metadata>
  <g
     inkscape:label="Layer 1"
     inkscape:groupmode="layer"
     id="layer1"
     transform="translate(21.590029,-157.65189)">
    <rect
       ry="3.8624624e-12"
       y="157.65189"
       x="-21.590029"
       height="34.313293"
       width="52.767502"
       id="rect1182-3"
       style="opacity:1;fill:#b3b3b3;fill-opacity:0;stroke:none;stroke-width:2.16019893;stroke-miterlimit:4;stroke-dasharray:none;stroke-opacity:1" />
    <text
       xml:space="preserve"
       style="font-style:normal;font-variant:normal;font-weight:normal;font-stretch:normal;font-size:4.52450514px;line-height:1.25;font-family:Roboto;-inkscape-font-specification:Roboto;letter-spacing:0px;word-spacing:0px;fill:#1a1a1a;fill-opacity:1;stroke:none;stroke-width:0.11311262"
       x="-4.4492731"
       y="188.54636"
       id="text1188-5"><tspan
         sodipodi:role="line"
         id="tspan1186-6"
         x="-4.4492731"
         y="188.54636"
         style="font-style:normal;font-variant:normal;font-weight:normal;font-stretch:normal;font-family:Montserrat;-inkscape-font-specification:Montserrat;fill:#1a1a1a;stroke-width:0.11311262">JAIPUR</tspan></text>
    <path
       inkscape:connector-curvature="0"
       id="path1203-2"
       d="m -9.0676766,182.30241 c -0.01518,-0.0397 -0.02029,-0.16158 -0.01129,-0.27099 l 0.01632,-0.19893 2.089779,-0.0258 2.08977,-0.0258 0.02578,-4.82454 c 0.02457,-4.58963 0.03052,-4.83404 0.122823,-5.01983 0.209087,-0.42081 0.758164,-0.67954 1.189444,-0.56045 0.110121,0.0304 0.219822,0.0432 0.243769,0.0284 0.02395,-0.0148 0.04356,-0.17763 0.04356,-0.36183 0,-0.3849 0.06522,-0.53677 0.344038,-0.80098 0.403865,-0.38272 0.769334,-0.45415 1.423236,-0.2782 l 0.141902,0.0382 v -0.33067 c 0,-0.18839 0.02662,-0.35731 0.06194,-0.39259 0.04295,-0.043 0.31189204,-0.0619 0.87718704,-0.0619 h 0.815272 v -0.50715 c 0,-0.47745 0.0091,-0.52086 0.155191,-0.74145 0.158944,-0.23993 0.428604,-0.4577 0.68666096,-0.5545 0.35523,-0.13324 0.907827,-0.0216 1.258474,0.25421 0.1072,0.0843 0.20931,0.10411 0.537197,0.10411 0.378467,0 0.406387,-0.008 0.428397,-0.1161 0.013,-0.0639 0.0369,-0.17907 0.0531,-0.25603 0.0162,-0.077 0.14377,-0.25417 0.28339,-0.3938 0.394177,-0.39418 0.901007,-0.51822 1.399193,-0.34245 0.428252,0.1511 0.815012,0.54744 0.870813,0.89241 l 0.0307,0.19017 0.404993,0.0152 c 0.391519,0.0147 0.413956,0.009 0.674679,-0.17057 0.50537,-0.34806 1.113216,-0.3027 1.58111,0.11798 0.364239,0.32747 0.407927,0.43607 0.407927,1.01402 v 0.49154 l 0.8900816,0.0141 0.89009,0.0141 0.01561,0.33538 c 0.009,0.18447 0.0339,0.35368 0.0561,0.37602 0.0223,0.0224 0.108109,0.0145 0.190778,-0.0173 0.194413,-0.075 0.674603,-0.0745 0.872691,7.6e-4 0.268772,0.10232 0.535673,0.31659 0.696193,0.55894 0.130389,0.19685 0.155199,0.28512 0.155199,0.55225 0,0.17487 0.01249,0.33043 0.0277,0.34568 0.01529,0.0153 0.127331,0.007 0.24905,-0.0195 0.46495,-0.0992 0.93019,0.12386 1.143082,0.54796 l 0.128119,0.25522 7.94e-4,4.74992 c 2.64e-4,2.61245 0.0191,4.77865 0.0413,4.8138 0.0309,0.0487 0.526439,0.0671 2.076088,0.0774 l 2.0355,0.0135 v 0.258 0.25799 l -13.8430976,0.013 c -11.810817,0.0111 -13.847149,0.002 -13.870744,-0.059 z m 5.784141,-2.14689 v -1.62538 h -0.490191 -0.49019 l -0.01365,1.57325 c -0.0076,0.86528 -0.0023,1.60338 0.01205,1.64022 0.01907,0.0497 0.1485,0.0632 0.503868,0.0521 l 0.478168,-0.0149 z m 1.909175,0.56759 v -1.05779 h -0.644992 -0.644992 l -0.01404,1.00467 c -0.0077,0.55256 -0.0023,1.0351 0.0119,1.07229 0.01983,0.0518 0.174064,0.0642 0.659044,0.0531 l 0.633099,-0.0145 z m -0.838486,0.37862 c -0.04295,-0.0173 -0.06454,-0.14622 -0.06454,-0.38561 v -0.3596 l 0.270895,0.0156 0.270903,0.0156 0.01579,0.30816 c 0.01266,0.24599 -0.0023,0.32145 -0.07438,0.37409 -0.0898,0.0657 -0.295978,0.0813 -0.418747,0.0317 z m 2.59286804,-0.37862 v -1.05779 l -0.508377,-0.0148 c -0.330529,-0.01 -0.533613,0.006 -0.580491,0.045 -0.05722,0.0475 -0.07209,0.26523 -0.07209,1.05112 0,0.5452 0.01625,1.00749 0.03601,1.02731 0.01984,0.0198 0.281042,0.0295 0.580491,0.0215 l 0.544454,-0.0146 z m 1.95524696,1.00197 c 0.0172,-0.0449 0.0314,-0.50645 0.0314,-1.02567 0,-0.74359 -0.0153,-0.95671 -0.0718,-1.00366 -0.0478,-0.0397 -0.276687,-0.0547 -0.683684,-0.045 l -0.61187696,0.0146 -0.014,1.00467 c -0.008,0.55257 -0.002,1.03437 0.0113,1.07069 0.0187,0.0487 0.19327696,0.066 0.66642596,0.066 0.536987,0 0.646165,-0.0133 0.672405,-0.0816 z m -0.861024,-0.62518 c -0.0794,-0.0206 -0.0904,-0.073 -0.0774,-0.36811 l 0.0152,-0.34408 h 0.258 0.257997 l 0.0151,0.34171 c 0.0141,0.31864 0.007,0.34383 -0.10319,0.37339 -0.129416,0.0346 -0.223857,0.0339 -0.365667,-0.003 z m 1.996198,0.62518 c 0.0172,-0.0449 0.0314,-0.50645 0.0314,-1.02567 0,-1.05694 -0.007,-1.07813 -0.344687,-1.05031 l -0.1971,0.0162 -0.014,1.07069 -0.014,1.07069 h 0.25352 c 0.183577,0 0.262167,-0.0225 0.284847,-0.0816 z m 2.017899,-1.00197 v -1.05779 h -0.696592 -0.6966 l -0.014,1.07216 -0.014,1.07214 0.71055,-0.0143 0.710542,-0.0143 z m -0.890092,0.37862 c -0.0429,-0.0173 -0.0645,-0.14568 -0.0645,-0.38292 v -0.3569 h 0.25248 c 0.286351,0 0.315122,0.0354 0.315122,0.38754 0,0.1351 -0.0323,0.25653 -0.0811,0.30537 -0.078,0.078 -0.287342,0.10125 -0.422012,0.0469 z m 2.03922,-0.36572 -0.014,-1.07069 h -0.257998 -0.25799 l -0.014,1.00467 c -0.008,0.55256 -0.0021,1.03438 0.0113,1.07068 0.0159,0.0416 0.121859,0.066 0.285991,0.066 h 0.260667 z m 1.946828,-0.0129 v -1.0578 l -0.611878,-0.0146 c -0.406998,-0.01 -0.635921,0.005 -0.683689,0.045 -0.0566,0.0469 -0.0718,0.26006 -0.0718,1.00366 0,0.51922 0.01431,0.98144 0.0319,1.02716 0.0274,0.0715 0.12342,0.0811 0.683688,0.0687 l 0.651801,-0.0144 z m -0.870249,0.34685 c -0.072,-0.0526 -0.087,-0.1281 -0.0744,-0.37409 l 0.0158,-0.30816 0.270888,-0.0156 0.270901,-0.0156 v 0.35837 c 0,0.27919 -0.0181,0.36529 -0.0816,0.38969 -0.132593,0.0509 -0.30503,0.036 -0.401632,-0.0346 z m 2.6762226,-0.34685 v -1.0578 H 9.7968774 9.2034884 l -0.014,1.00467 c -0.008,0.55256 -0.0021,1.03514 0.01191,1.07238 0.01979,0.0516 0.164531,0.0642 0.607462,0.0531 l 0.5814586,-0.0146 z m 1.955258,1.00197 c 0.0172,-0.0449 0.0314,-0.50645 0.0314,-1.02567 0,-0.7436 -0.01529,-0.95671 -0.0718,-1.00366 -0.0478,-0.0397 -0.27668,-0.0547 -0.683689,-0.045 l -0.61187,0.0146 -0.014,1.00466 c -0.008,0.55257 -0.0021,1.03438 0.0113,1.07069 0.01871,0.0488 0.193271,0.066 0.666422,0.066 0.536988,0 0.646179,-0.0133 0.67241,-0.0816 z m -0.861031,-0.62518 c -0.0794,-0.0206 -0.0904,-0.073 -0.0774,-0.36811 l 0.01521,-0.34408 h 0.25799 0.257998 l 0.01511,0.34171 c 0.0141,0.31864 0.007,0.34383 -0.103191,0.37338 -0.12941,0.0346 -0.223858,0.034 -0.36567,-0.003 z m 2.42815,-0.93148 -0.0136,-1.63828 h -0.464392 -0.464399 l -0.01371,1.63828 -0.01371,1.63828 h 0.491652 0.491638 z m -15.2714076,-1.36739 -0.01556,-0.27089 h -0.644993 -0.644992 l -0.01633,0.19892 c -0.0283,0.34423 -0.03105,0.34287 0.688201,0.34287 h 0.649309 z m 1.73878104,-0.0129 v -0.25799 l -0.508377,-0.0149 c -0.330529,-0.01 -0.533613,0.006 -0.580491,0.045 -0.074,0.0614 -0.100615,0.41431 -0.03608,0.47884 0.01984,0.0198 0.281042,0.0295 0.580491,0.0215 l 0.544454,-0.0146 z m 1.95524696,0.20218 c 0.0549,-0.14313 0.0337,-0.36815 -0.0405,-0.42974 -0.0478,-0.0397 -0.276687,-0.0547 -0.683684,-0.045 l -0.61186696,0.0146 -0.0163,0.19892 c -0.0282,0.34385 -0.0302,0.34287 0.67998696,0.34287 0.536987,0 0.646165,-0.0133 0.672414,-0.0816 z m 1.135174,0 c 0.0555,-0.14453 0.0334,-0.3684 -0.0425,-0.43138 -0.0406,-0.0337 -0.162487,-0.0539 -0.270897,-0.045 l -0.19709,0.0163 -0.0156,0.27089 -0.0156,0.2709 h 0.25517 c 0.185086,0 0.263776,-0.0224 0.286496,-0.0816 z m 2.017899,-0.20218 v -0.25799 h -0.696592 -0.6966 l -0.0156,0.27238 -0.0156,0.27237 0.71224,-0.0143 0.712228,-0.0144 z m 1.150779,0.0129 -0.01561,-0.27089 h -0.258001 -0.25799 l -0.0163,0.19892 c -0.02519,0.3072 0.006,0.34287 0.301212,0.34287 h 0.262319 z m 1.945177,-0.0129 v -0.25799 l -0.611878,-0.0146 c -0.670018,-0.0159 -0.75551,0.0122 -0.75551,0.24888 0,0.31017 0.004,0.31182 0.715592,0.2961 l 0.651796,-0.0144 z m 1.8059736,0 v -0.25799 H 9.7968774 9.2034884 l -0.0163,0.19893 c -0.0285,0.3465 -0.0258,0.34792 0.62166,0.33167 l 0.5814606,-0.0146 z m 1.955258,0.20218 c 0.0549,-0.14313 0.0337,-0.36815 -0.0405,-0.42974 -0.0478,-0.0397 -0.276688,-0.0547 -0.683688,-0.045 l -0.611878,0.0146 -0.0163,0.19892 c -0.0282,0.34385 -0.0302,0.34287 0.679998,0.34287 0.53698,0 0.646171,-0.0133 0.672412,-0.0816 z m -15.6138606,-3.78833 c 0.01572,-2.80063 0.0038,-2.99258 -0.194288,-3.17199 -0.161386,-0.14606 -0.496011,-0.12371 -0.664095,0.0443 l -0.137202,0.13718 -0.01419,2.79618 c -0.0079,1.5379 -0.0023,2.82696 0.01205,2.86456 0.01976,0.0515 0.144206,0.0648 0.504411,0.0536 l 0.478168,-0.0149 z m 1.919772,1.84143 v -0.89333 l -0.141894,-0.13235 c -0.193548,-0.18052 -0.3377,-0.24816 -0.528899,-0.24816 -0.19119,0 -0.335342,0.0677 -0.52889,0.24816 l -0.141894,0.13235 v 0.85893 c 0,0.47241 0.01549,0.87442 0.0344,0.89334 0.01892,0.0189 0.320772,0.0344 0.670792,0.0344 h 0.636387 z m -0.918207,-0.0972 0.01518,-0.37687 0.210865,-0.0155 c 0.281432,-0.0206 0.340294,0.0595 0.320734,0.4368 l -0.01556,0.30105 -0.273215,0.0156 -0.273207,0.0157 z m 2.64678804,-3.08583 v -4.05055 l -0.508377,-0.0148 c -0.330529,-0.01 -0.533613,0.006 -0.580491,0.045 -0.06065,0.0503 -0.07209,0.69523 -0.07209,4.04388 0,2.19122 0.01625,4.00025 0.03601,4.02007 0.01984,0.0198 0.281042,0.0295 0.580491,0.0215 l 0.544454,-0.0146 z m 1.96351696,3.95473 c 0.0168,-0.0669 0.023,-0.48247 0.0139,-0.92353 -0.0188,-0.90697 -0.0356,-0.94994 -0.441726,-1.13167 -0.288737,-0.12919 -0.558417,-0.0628 -0.782774,0.19275 l -0.15950996,0.18167 v 0.8668 c 0,0.47673 0.0155,0.88228 0.0344,0.9012 0.0189,0.0189 0.320328,0.0344 0.669798,0.0344 0.624444,0 0.635934,-0.002 0.665924,-0.12161 z m -0.920554,-0.5296 c -0.0202,-0.0202 -0.0368,-0.18135 -0.0368,-0.35805 0,-0.34553 0.0307,-0.38468 0.30091,-0.38313 0.238967,0.002 0.273377,0.0573 0.256457,0.4167 l -0.0156,0.3307 -0.234116,0.0153 c -0.128771,0.008 -0.25067,-0.002 -0.2709,-0.0215 z m 2.047458,0.56959 c 0.0172,-0.0448 0.0314,-2.17825 0.0314,-4.74082 0,-5.16022 0.0263,-4.79602 -0.344687,-4.76546 l -0.1971,0.0163 -0.0132,4.78584 -0.0132,4.78584 h 0.25274 c 0.182867,0 0.261407,-0.0226 0.284067,-0.0816 z m 2.031869,-0.98925 c 0.01191,-0.8935 0.0021,-1.06362 -0.0698,-1.17297 -0.139142,-0.21235 -0.39152,-0.33613 -0.68537,-0.33613 -0.23161,0 -0.29045,0.0233 -0.4712,0.18661 l -0.20655,0.1866 v 1.10484 1.10484 l 0.7095,-0.0143 0.709492,-0.0144 z m -0.957922,0.0776 0.0152,-0.37409 0.20433,-0.0166 c 0.252309,-0.0206 0.33746,0.0762 0.33746,0.3835 0,0.34599 -0.0294,0.38135 -0.31738,0.38135 h -0.25474 z m 2.092302,-3.79255 -0.0132,-4.78583 h -0.25799 -0.258001 l -0.01341,4.72133 c -0.008,2.59675 -0.0021,4.75037 0.0113,4.78584 0.01521,0.0398 0.124082,0.0645 0.28448,0.0645 h 0.259882 z m 1.961708,3.87312 0.0141,-0.88692 -0.160721,-0.18304 c -0.29417,-0.33504 -0.75052,-0.3466 -1.057209,-0.0268 l -0.151871,0.15836 -0.01659,0.80394 c -0.009,0.44217 -0.003,0.85935 0.01431,0.92709 0.0308,0.1227 0.0333,0.12309 0.68743,0.10871 l 0.656519,-0.0144 z m -0.93191,0.26151 c -0.0615,-0.0615 -0.041,-0.61386 0.02511,-0.68005 0.0706,-0.0706 0.343371,-0.0815 0.443849,-0.0177 0.0466,0.0296 0.0624,0.14366 0.0516,0.37332 l -0.01561,0.3307 -0.234125,0.0153 c -0.128756,0.008 -0.250655,-0.002 -0.270885,-0.0215 z m 2.7237816,-3.42513 v -4.05055 H 9.7968774 9.2034884 l -0.01341,3.99895 c -0.008,2.19942 -0.0021,4.02873 0.01191,4.06514 0.019,0.0497 0.170299,0.0626 0.606732,0.0516 l 0.5814616,-0.0146 z m 1.955258,3.99472 c 0.0172,-0.0448 0.0314,-0.41862 0.0314,-0.83052 0,-0.84897 -0.0362,-0.96293 -0.363577,-1.14697 -0.330362,-0.18567 -0.688404,-0.11511 -0.921854,0.18167 -0.0992,0.12611 -0.107749,0.20334 -0.107749,0.97282 0,0.4597 0.01551,0.85131 0.0344,0.87023 0.01889,0.0189 0.318288,0.0344 0.665278,0.0344 0.52767,0 0.63599,-0.0134 0.662192,-0.0816 z m -0.912289,-0.56959 c -0.02019,-0.0202 -0.0368,-0.18135 -0.0368,-0.35805 0,-0.34553 0.0307,-0.38468 0.30091,-0.38313 0.238969,0.002 0.273391,0.0573 0.256461,0.4167 l -0.01561,0.3307 -0.234121,0.0153 c -0.128768,0.008 -0.250669,-0.002 -0.270899,-0.0215 z m 2.49159,-2.16351 c 0,-3.10727 0.0021,-3.09049 -0.310579,-3.15293 -0.185113,-0.037 -0.174133,-0.037 -0.35923,0 -0.312229,0.0625 -0.310584,0.0457 -0.310584,3.15293 v 2.81472 h 0.490191 0.490202 z M -1.3485596,174.4577 c 0,-0.96631 -0.02548,-1.03569 -0.439147,-1.19365 -0.218784,-0.0836 -0.2445,-0.0836 -0.463284,0 -0.414315,0.15823 -0.439146,0.22625 -0.439146,1.20271 v 0.85045 l 0.141894,-0.0349 c 0.324494,-0.0797 0.715115,-0.0867 0.915887,-0.0163 0.113523,0.0398 0.223811,0.0635 0.245095,0.0527 0.02128,-0.0108 0.03868,-0.39824 0.03868,-0.861 z m -0.907397,0.26121 c -0.01488,-0.0387 -0.01991,-0.207 -0.01129,-0.3741 l 0.01564,-0.30381 h 0.257996 0.258003 l 0.01564,0.30104 c 0.0092,0.17756 -0.0092,0.33102 -0.04501,0.3741 -0.0786,0.0947 -0.454885,0.0968 -0.490984,0.003 z m 14.6099336,0.51555 c 0.01691,-0.0673 0.0231,-0.46471 0.01389,-0.88321 l -0.0168,-0.7609 -0.196004,-0.1693 c -0.263405,-0.22754 -0.496996,-0.26737 -0.775985,-0.13231 -0.359651,0.1741 -0.395391,0.28419 -0.395391,1.21772 v 0.81075 l 0.141899,-0.033 c 0.368898,-0.0859 0.764682,-0.0921 0.941681,-0.0147 0.243319,0.10634 0.251521,0.10534 0.286731,-0.0349 z m -0.93504,-0.51271 c -0.0154,-0.0402 -0.02101,-0.20984 -0.0123,-0.37694 l 0.01561,-0.30381 h 0.257998 0.258001 v 0.36119 0.36119 l -0.245629,0.0158 c -0.175501,0.0112 -0.253632,-0.005 -0.273682,-0.0574 z m -10.0044726,0.42263 c 0.16219,-0.0408 0.28801,-0.0397 0.470637,0.005 0.496417,0.11974 0.453807,0.18732 0.469957,-0.74547 0.0157,-0.90752 -0.0105,-1.03106 -0.257347,-1.21356 -0.32296,-0.23878 -0.769237,-0.1796 -1.016544,0.1348 -0.0995,0.1265 -0.10774996,0.20298 -0.10774996,0.99862 0,0.4739 0.0162,0.87783 0.036,0.89764 0.0198,0.0198 0.0693,0.0233 0.10985,0.008 0.0406,-0.0156 0.173447,-0.0534 0.295207,-0.0841 z m -0.006,-0.68062 c -0.0154,-0.0402 -0.021,-0.20984 -0.0124,-0.37694 l 0.0157,-0.30382 h 0.258 0.257987 v 0.36119 0.3612 l -0.245617,0.0157 c -0.1755,0.0113 -0.25363,-0.005 -0.27369,-0.0574 z m 6.276259,0.68102 c 0.162859,-0.0349 0.306908,-0.0326 0.464507,0.007 0.471843,0.11945 0.433031,0.18912 0.448922,-0.80584 0.0131,-0.81489 0.006,-0.89154 -0.0889,-1.01254 -0.226431,-0.28786 -0.670801,-0.37865 -0.967582,-0.19769 -0.28829,0.17578 -0.324987,0.31461 -0.324987,1.2293 0,0.45076 0.01619,0.83576 0.036,0.85556 0.01979,0.0198 0.072,0.0222 0.11598,0.005 0.044,-0.0169 0.186208,-0.0535 0.31605,-0.0813 z m -0.0185,-0.64561 c -0.02019,-0.0202 -0.0368,-0.16939 -0.0368,-0.33146 0,-0.34859 0.0648,-0.42399 0.3447,-0.40094 l 0.19709,0.0162 v 0.36119 0.3612 l -0.234122,0.0153 c -0.128759,0.008 -0.250658,-0.002 -0.270888,-0.0215 z m -2.152351,-0.56046 c 0,-0.93832 -0.0021,-0.9491 -0.130458,-1.10264 -0.0718,-0.0853 -0.235069,-0.19499 -0.362902,-0.24381 -0.198551,-0.0758 -0.263521,-0.0794 -0.445751,-0.0249 -0.11733,0.0352 -0.2791,0.1297 -0.3595,0.21009 l -0.14617,0.14617 v 0.98436 c 0,0.5414 0.01,0.98436 0.0217,0.98436 0.0119,0 0.16349,-0.0363 0.33686,-0.0808 0.25313,-0.0648 0.36827,-0.0696 0.58465,-0.0244 0.148201,0.031 0.30317,0.0774 0.344379,0.10315 0.0412,0.0258 0.0935,0.0354 0.116101,0.0214 0.0227,-0.014 0.0412,-0.45185 0.0412,-0.97302 z m -0.980391,-0.12991 v -0.3612 h 0.25248 c 0.282361,0 0.315124,0.0375 0.315124,0.3612 0,0.32364 -0.0327,0.36119 -0.315124,0.36119 h -0.252481 z m -6.753095,-1.14507 c 0.187674,-0.0416 0.299488,-0.0351 0.523932,0.0301 0.156938,0.0456 0.299183,0.0829 0.316103,0.0829 0.01694,0 0.03006,-0.43537 0.02914,-0.96748 -0.0015,-1.04391 -0.0081,-1.07103 -0.294247,-1.25971 -0.283239,-0.18677 -0.750589,-0.0935 -0.967457,0.19316 -0.05928,0.0783 -0.0753,0.30314 -0.07659,1.07257 l -0.0015,0.97349 0.116101,-0.0362 c 0.06385,-0.0199 0.223468,-0.06 0.354689,-0.089 z m -0.04745,-1.08383 0.01518,-0.37687 0.210857,-0.0154 c 0.281431,-0.0206 0.340294,0.0595 0.320742,0.43679 l -0.01564,0.30105 -0.273206,0.0157 -0.273216,0.0157 z m 13.6914766,1.08771 c 0.162197,-0.0408 0.288006,-0.0397 0.470656,0.005 0.498311,0.12019 0.453912,0.19818 0.469003,-0.82397 0.01479,-1.00071 -0.004,-1.08078 -0.292613,-1.27554 -0.12355,-0.0833 -0.249521,-0.11765 -0.431009,-0.11765 -0.229079,0 -0.27781,0.0214 -0.456761,0.20033 l -0.200329,0.20032 v 0.92627 c 0,0.50944 0.01619,0.94246 0.036,0.96226 0.01979,0.0198 0.0693,0.0233 0.109829,0.008 0.0406,-0.0156 0.17346,-0.0534 0.295211,-0.0841 z m 0.009,-0.74841 c -0.02019,-0.0202 -0.0368,-0.18135 -0.0368,-0.35805 0,-0.34554 0.0307,-0.38468 0.300908,-0.38313 0.238963,0.002 0.273383,0.0573 0.256463,0.4167 l -0.01561,0.3307 -0.234108,0.0153 c -0.12877,0.008 -0.250674,-0.002 -0.270904,-0.0215 z m -9.0756876,-0.18272 -0.0168,-0.7261 -0.195987,-0.1693 c -0.3496,-0.30198 -0.738417,-0.27368 -1.031894,0.0751 -0.13758996,0.16351 -0.13948996,0.17599 -0.13948996,0.91602 v 0.75024 l 0.14189996,-0.0352 c 0.321887,-0.0799 0.764564,-0.0859 0.967484,-0.0131 0.177537,0.0638 0.212337,0.0639 0.248947,0.002 0.0234,-0.0401 0.035,-0.3996 0.0258,-0.79896 z m -0.948864,0.19891 c -0.0154,-0.0402 -0.021,-0.20984 -0.0124,-0.37694 l 0.0156,-0.30382 h 0.258 0.257987 v 0.36119 0.3612 l -0.245617,0.0158 c -0.1755,0.0112 -0.25363,-0.005 -0.27368,-0.0574 z m 7.201417,-0.11441 v -0.74333 l -0.159052,-0.18115 c -0.292849,-0.33353 -0.750538,-0.34498 -1.055989,-0.0264 l -0.15235,0.15888 v 0.75782 0.75783 l 0.129,-0.0127 c 0.071,-0.007 0.26832,-0.0262 0.4386,-0.0427 0.209579,-0.0203 0.376259,-0.006 0.51599,0.0449 0.11352,0.0412 0.223809,0.0648 0.2451,0.0526 0.0213,-0.0123 0.0387,-0.35689 0.0387,-0.76573 z m -0.92306,0.11135 c -0.0381,-0.0459 -0.0566,-0.19394 -0.0472,-0.37665 l 0.01561,-0.30105 h 0.258004 0.257997 v 0.36119 0.3612 l -0.210859,0.0155 c -0.137991,0.0101 -0.23254,-0.0107 -0.273601,-0.0601 z m -3.162742,0.0566 c 0.21465,-0.0546 0.33397,-0.0411 0.873741,0.099 l 0.116099,0.0301 v -0.82764 c 0,-0.81003 -0.003,-0.83095 -0.130468,-0.9827 -0.0718,-0.0853 -0.235061,-0.19499 -0.3629,-0.24382 -0.198552,-0.0758 -0.263522,-0.0794 -0.445742,-0.0249 -0.11733,0.0352 -0.27911,0.12969 -0.35951,0.21009 l -0.14617,0.14617 v 0.86138 0.86137 l 0.1161,-0.0362 c 0.0638,-0.0199 0.21634,-0.0617 0.33885,-0.0929 z m 0.009,-0.91494 v -0.36119 h 0.25248 c 0.282345,0 0.315109,0.0375 0.315109,0.36119 0,0.32364 -0.0327,0.3612 -0.315109,0.3612 h -0.252477 z m -3.119292,-0.98639 c 0.1622,-0.0408 0.28801,-0.0397 0.470657,0.005 0.498097,0.12013 0.455667,0.19204 0.455667,-0.77238 0,-0.46826 -0.0166,-0.91029 -0.0369,-0.98226 -0.0514,-0.18217 -0.324397,-0.3691 -0.581367,-0.39807 -0.250567,-0.0282 -0.478867,0.0703 -0.641334,0.27687 -0.0998,0.12686 -0.10774996,0.20261 -0.10774996,1.02442 0,0.48809 0.0162,0.90363 0.036,0.92343 0.0198,0.0198 0.0692,0.0233 0.10984,0.008 0.0406,-0.0156 0.173447,-0.0534 0.295197,-0.0841 z m 0.009,-0.64521 c -0.0202,-0.0202 -0.0368,-0.18135 -0.0368,-0.35805 0,-0.34553 0.0307,-0.38468 0.30092,-0.38313 0.238957,0.002 0.273367,0.0573 0.256447,0.41671 l -0.0156,0.33069 -0.234107,0.0153 c -0.12877,0.008 -0.25068,-0.002 -0.27091,-0.0215 z m 6.234982,0.64521 c 0.16219,-0.0408 0.28801,-0.0397 0.470652,0.005 0.498358,0.1202 0.453818,0.19873 0.469738,-0.82845 0.0158,-1.01673 -0.003,-1.07948 -0.368749,-1.25317 -0.365149,-0.17328 -0.79919,-0.0307 -0.941211,0.30926 -0.0757,0.18132 -0.106381,1.77346 -0.0355,1.84437 0.01979,0.0198 0.0692,0.0233 0.109829,0.008 0.0406,-0.0156 0.173461,-0.0534 0.295211,-0.0841 z m 0.009,-0.64521 c -0.02021,-0.0202 -0.0368,-0.16938 -0.0368,-0.33145 0,-0.34859 0.0648,-0.42399 0.344692,-0.40095 l 0.197098,0.0163 v 0.3612 0.3612 l -0.234119,0.0152 c -0.12877,0.008 -0.250661,-0.002 -0.270901,-0.0215 z m -3.142185,0.0182 c 0.21465,-0.0546 0.33396,-0.0411 0.87374,0.099 l 0.1161,0.0301 v -0.98461 -0.98461 l -0.159589,-0.18176 c -0.296101,-0.33723 -0.768541,-0.36798 -1.105701,-0.0719 l -0.1795,0.1576 v 1.03266 1.03266 l 0.1161,-0.0362 c 0.0639,-0.0199 0.21634,-0.0617 0.33885,-0.0929 z m 0.0308,-0.77881 c -0.0148,-0.0387 -0.0199,-0.207 -0.0113,-0.3741 l 0.0157,-0.30381 0.227081,-0.0163 c 0.14674,-0.0105 0.242307,0.008 0.27011,0.0516 0.0655,0.10331 0.0528,0.58079 -0.0173,0.65092 -0.0859,0.0859 -0.450508,0.0796 -0.484278,-0.008 z"
       style="fill:#1a1a1a;stroke-width:0.05159934" />
  </g>
</svg>
